<mxfile host="Electron" modified="2023-06-18T02:29:30.388Z" agent="Mozilla/5.0 (Windows NT 10.0; Win64; x64) AppleWebKit/537.36 (KHTML, like Gecko) draw.io/21.2.1 Chrome/112.0.5615.87 Electron/24.1.2 Safari/537.36" etag="mVpla-aRpqgz60MULVz8" version="21.2.1" type="device">
  <diagram name="Página-1" id="cfxDkMGEd7cT98KOki9Y">
    <mxGraphModel dx="864" dy="516" grid="1" gridSize="10" guides="1" tooltips="1" connect="1" arrows="1" fold="1" page="1" pageScale="1" pageWidth="827" pageHeight="1169" math="0" shadow="0">
      <root>
        <mxCell id="0" />
        <mxCell id="1" parent="0" />
        <mxCell id="bhsM0qureE1KK-jTyyGe-2" value="&lt;b&gt;Browser&lt;br&gt;(Desktop)&lt;/b&gt;" style="rounded=0;whiteSpace=wrap;html=1;verticalAlign=middle;align=center;spacingRight=0;spacingLeft=65;" parent="1" vertex="1">
          <mxGeometry x="104.25" y="150" width="140" height="80.25" as="geometry" />
        </mxCell>
        <mxCell id="bhsM0qureE1KK-jTyyGe-3" value="&lt;b&gt;Browser&lt;br&gt;(Mobile)&lt;/b&gt;" style="rounded=0;whiteSpace=wrap;html=1;spacingLeft=65;" parent="1" vertex="1">
          <mxGeometry x="104.25" y="240.25" width="140" height="80" as="geometry" />
        </mxCell>
        <mxCell id="bhsM0qureE1KK-jTyyGe-4" value="&lt;b&gt;Browser&lt;br&gt;(Notebook)&lt;/b&gt;" style="rounded=0;whiteSpace=wrap;html=1;spacingLeft=65;" parent="1" vertex="1">
          <mxGeometry x="104.25" y="330.25" width="140" height="79.75" as="geometry" />
        </mxCell>
        <mxCell id="bhsM0qureE1KK-jTyyGe-5" value="&lt;b&gt;Servidor Web&lt;br&gt;(Aplicação)&lt;/b&gt;" style="rounded=0;whiteSpace=wrap;html=1;spacingLeft=65;" parent="1" vertex="1">
          <mxGeometry x="347" y="240" width="156" height="80" as="geometry" />
        </mxCell>
        <mxCell id="bhsM0qureE1KK-jTyyGe-11" style="edgeStyle=orthogonalEdgeStyle;rounded=0;orthogonalLoop=1;jettySize=auto;html=1;exitX=1;exitY=0.5;exitDx=0;exitDy=0;entryX=0.5;entryY=0;entryDx=0;entryDy=0;endArrow=none;endFill=0;" parent="1" source="bhsM0qureE1KK-jTyyGe-7" target="bhsM0qureE1KK-jTyyGe-8" edge="1">
          <mxGeometry relative="1" as="geometry">
            <mxPoint x="770" y="310.25" as="targetPoint" />
          </mxGeometry>
        </mxCell>
        <mxCell id="bhsM0qureE1KK-jTyyGe-7" value="&lt;b&gt;Servidor &lt;br&gt;de Dados&lt;br&gt;(SGBD)&lt;/b&gt;" style="rounded=0;whiteSpace=wrap;html=1;spacingLeft=65;" parent="1" vertex="1">
          <mxGeometry x="610" y="240.25" width="150" height="80" as="geometry" />
        </mxCell>
        <mxCell id="bhsM0qureE1KK-jTyyGe-8" value="&lt;b&gt;Banco de Dados&lt;/b&gt;" style="shape=datastore;whiteSpace=wrap;html=1;strokeWidth=2;" parent="1" vertex="1">
          <mxGeometry x="770" y="335.25" width="70" height="69.75" as="geometry" />
        </mxCell>
        <mxCell id="bhsM0qureE1KK-jTyyGe-12" value="" style="endArrow=none;dashed=1;html=1;dashPattern=1 3;strokeWidth=2;rounded=0;" parent="1" edge="1">
          <mxGeometry width="50" height="50" relative="1" as="geometry">
            <mxPoint x="295" y="525.25" as="sourcePoint" />
            <mxPoint x="295" y="35.25" as="targetPoint" />
          </mxGeometry>
        </mxCell>
        <mxCell id="bhsM0qureE1KK-jTyyGe-15" value="&lt;b&gt;TCP/IP&lt;/b&gt;" style="endArrow=classic;startArrow=classic;html=1;rounded=0;entryX=1;entryY=0.5;entryDx=0;entryDy=0;exitX=0;exitY=0.25;exitDx=0;exitDy=0;fontStyle=0" parent="1" source="bhsM0qureE1KK-jTyyGe-5" target="bhsM0qureE1KK-jTyyGe-2" edge="1">
          <mxGeometry width="50" height="50" relative="1" as="geometry">
            <mxPoint x="530" y="390" as="sourcePoint" />
            <mxPoint x="580" y="340" as="targetPoint" />
          </mxGeometry>
        </mxCell>
        <mxCell id="bhsM0qureE1KK-jTyyGe-17" value="&lt;b&gt;TCP/IP&lt;/b&gt;" style="endArrow=classic;startArrow=classic;html=1;rounded=0;entryX=0;entryY=0.5;entryDx=0;entryDy=0;exitX=1;exitY=0.5;exitDx=0;exitDy=0;" parent="1" source="bhsM0qureE1KK-jTyyGe-3" target="bhsM0qureE1KK-jTyyGe-5" edge="1">
          <mxGeometry width="50" height="50" relative="1" as="geometry">
            <mxPoint x="370" y="290" as="sourcePoint" />
            <mxPoint x="290" y="210" as="targetPoint" />
          </mxGeometry>
        </mxCell>
        <mxCell id="bhsM0qureE1KK-jTyyGe-18" value="&lt;b&gt;TCP/IP&lt;/b&gt;" style="endArrow=classic;startArrow=classic;html=1;rounded=0;entryX=1;entryY=0.5;entryDx=0;entryDy=0;exitX=0;exitY=0.75;exitDx=0;exitDy=0;" parent="1" source="bhsM0qureE1KK-jTyyGe-5" target="bhsM0qureE1KK-jTyyGe-4" edge="1">
          <mxGeometry width="50" height="50" relative="1" as="geometry">
            <mxPoint x="380" y="405" as="sourcePoint" />
            <mxPoint x="300" y="340" as="targetPoint" />
          </mxGeometry>
        </mxCell>
        <mxCell id="bhsM0qureE1KK-jTyyGe-21" value="&lt;b&gt;Camada de Apresentação&lt;/b&gt;" style="text;html=1;strokeColor=none;fillColor=none;align=center;verticalAlign=middle;whiteSpace=wrap;rounded=0;" parent="1" vertex="1">
          <mxGeometry x="99.25" y="450" width="150" height="30" as="geometry" />
        </mxCell>
        <mxCell id="bhsM0qureE1KK-jTyyGe-22" value="&lt;b&gt;Camada de Negócio&lt;/b&gt;" style="text;html=1;strokeColor=none;fillColor=none;align=center;verticalAlign=middle;whiteSpace=wrap;rounded=0;" parent="1" vertex="1">
          <mxGeometry x="350" y="450" width="150" height="30" as="geometry" />
        </mxCell>
        <mxCell id="bhsM0qureE1KK-jTyyGe-23" value="&lt;b&gt;Camada de Dados&lt;/b&gt;" style="text;html=1;strokeColor=none;fillColor=none;align=center;verticalAlign=middle;whiteSpace=wrap;rounded=0;" parent="1" vertex="1">
          <mxGeometry x="620" y="450" width="150" height="30" as="geometry" />
        </mxCell>
        <mxCell id="bhsM0qureE1KK-jTyyGe-28" value="" style="shape=image;verticalLabelPosition=bottom;labelBackgroundColor=default;verticalAlign=top;aspect=fixed;imageAspect=0;image=data:image/png,iVBORw0KGgoAAAANSUhEUgAAAgAAAAIACAMAAADDpiTIAAAAA3NCSVQICAjb4U/gAAAACXBIWXMAAMp6AADKegFhWXosAAAAGXRFWHRTb2Z0d2FyZQB3d3cuaW5rc2NhcGUub3Jnm+48GgAAAZJQTFRF////AAAAAAAAAAAAAAAAAAAAAAAAAAAAAAAAAAAAAAAAAAAAAAAAAAAAAAAAAAAAAAAAAAAAAAAAAAAAAAAAAAAAAAAAAAAAAAAAAAAAAAAAAAAAAAAAAAAAAAAAAAAAAAAAAAAAAAAAAAAAAAAAAAAAAAAAAAAAAAAAAAAAAAAAAAAAAAAAAAAAAAAAAAAAAAAAAAAAAAAAAAAAAAAAAAAAAAAAAAAAAAAAAAAAAAAAAAAAAAAAAAAAAAAAAAAAAAAAAAAAAAAAAAAAAAAAAAAAAAAAAAAAAAAAAAAAAAAAAAAAAAAAAAAAAAAAAAAAAAAAAAAAAAAAAAAAAAAAAAAAAAAAAAAAAAAAAAAAAAAAAAAAAAAAAAAAAAAAAAAAAAAAAAAAAAAAAAAAAAAAAAAAAAAAAAAAAAAAAAAAAAAAAAAAAAAAAAAAAAAAAAAAAAAAAAAAAAAAAAAAAAAAAAAAAAAAAAAAAAAAAAAAAAAAAAAAAAAAAAAAAAAAAAAAAAAAAAAAAAAAAAAAAAAAAAAAoeXDDQAAAIV0Uk5TAAECAwQGBwgJCg0OERIVFhcYGRwdHyAkJSgpKiwuMDE3ODk7PD5AREVHS09SVVZXWF1eYmNlZmhpam5vcXJ9foCIiouMjZGTl5iam5+jpKaoqaqrrK6vsLO1tri5vL2+wcTFx8nMzc7P09bY29zd3uHk5efo6uvs7u/w8fT19/j5+vz9/hFZGlgAAAhTSURBVHja7d3/b1XlHcDxc/uFQnvbeqHUBsZosStWJFESoRM0zrhEk+mYBmeyxL9gf87+B7fFzS1b4qaJoUHnmG4Tsq6Cxba6xq6LXOi3FdpynYtkAr1tsl6e+/Q5r/dP0HNyz+H5vO6Xnt5bClkU9XR3tBRLxdL2LP2WyvPl+WuzM9NRnE2h/qfQ0Lt/cG+Wv6ZGJyduADB4YLCU5bXy6Mej+QbQ90R/lu/GTo/nF8C9J45k+uuZf+YTQMe3H20y/v+08od3Z3MIoPeFnWb/VZd/MVGvQzfW68AP/7Bo8DfbcXh2Ol8AGr7zvUZz/9oYHsgmKzkC0PbCkKHf2oHu8eXcANjxowETv73ufaMrOQFQePYB876ze9o+zAmAxx8z7bXaszyZCwAPfr9g2Gt238xMDgDse6nZqKs8N/aPB78i1BD6gNtO7jDpqq+OT25L/hHg0YfMuXrFpU8SfwQoHjfl9TpeTBzAsXZDXq/2Y2kD2H3CjNfvxO6kAQxtM+INXiQPpQxg1zET3vBJclfCAAZcAtr4YsBAwgDuM9/YFinom7Lawr4DdGm1RjfUGPTjCv1tC6kC6A94EXjlrdHaXVjvHnwy3EI1958LOJOgVwKHAn7+46fv1fB+tDD5r8PhTn3hQqKvAQqHwh3r3Ehtb28k4L3yUCFRAJ1t4Y71j+hvcJ2XSp2pAgh4rOvR32AkCxUSQMAHgKwr+huMZKFCAgj5g66je2p7e3uOJrpQIQG0BjxWy4sHa3lzB19sSXShQl4HCPnIlu1++fPpml0I6gl7fb4tUQCB3wqwK+zUtuhChXwK8GGwCBeqwXLnOwAAEAACQAAIAAEgAASAABAAAkAACAABIAAEgBIrhv+y4fNrOV38ll0AfNlbH+QUwEOnPAUIAAEgAASAABAAAkAACAABIAAEgAAQAAJAAAgAASAABIAAEAACQAAIAAEgAASAABAAAkAACAABIAAEgAAQAAJAAAgAASAAABAAAkAACAABIAAEgAAQAAJAAAgAASAABIAAEAACQAAIAAEgAASAABAAAkAACAABIAAEgAAQAAJAAAgAASAABIAAEAACQAAIAAEgAASAABAAAkAACAABIAAEgAAQAAJAAAgAASAABIAAEAACQAAIAAEgAASAABAAAkAACAABIAAEgAAQAAJAAAgAAQCAABAAAkAACAABIAAEgAAQAAJAAAgAASAABIAAEAACQAAIAAEgAASAABAAAkAACAABIAAEgAAQAAJAAAgAASAABIAAEAACQAAIAAEgAASAABAAAkAACAABIAAEgAAQAAJAAAgAASAABIAAEAACQAAIAAEgAASAABAAAkAACAABIAAEgAAQAAJAAAgAAASAABAAAkAACAABIAAEgAAQAAJAAAgAASAABIAAEAACQAAIAAEgAASAABAAAkAACAABIAAEgAAQAAJAAAgAASAABIAAEAACQAAIAAEgAASAABAAAkAACAABIAAEgAAQAAJAAAgAASAABIAAEAACQAAIAAEgAASAABAAAkAACAABIAAEgAAQAAJAAAAgAASAABAAAkAACAABIAAEgAAQAAJAAAgAASAABIAAEAACQAAIAAEgAASAABAAAkAACAABIAAEgAAQAAJAAAgAASAABIAAEAACQAAIAAEgAASAABAAAkAACAABIAAEgAAQAAJAAAgAASAABIAAEAACQAAIAAEgAASAABAAAkAACAABIAAEgAAQAAIAAAEgAASA8lhTBOdw6pQ5eAQQAAJAAAgAASAABIAAEAACQHerpvz+0yvjY3OL81mxtb2/rwBA3pr548XyzT8PlwaGugHIU1ff+dPy1/5aPvuXo8c7AchNH/5q7ravLL9z/uT9XgTmpOFX5u784twrwx4B8tGbp9f88sob17/rESAHvV/1nj78PgDp9+nrlarfGL7+KQDpPwEsVd+29CYAqXf+0npbL50HIPHe3tRmALZ6k1Prb5+aBCDpLmx6BwC2dOOb3gGArdyNqY32mLoBQMJdWd1oj9UrACTcfE12AeD/a7X+/9ylmuyS0kKFBDBb/6Vtrckud7u5RAEs1n9pO2qyy91uIVEACxEAaN5oj+YIACwCcNfq3fQOcbxU3ZIA5gHI91PA1QjW9v5N75DYQgX9LiCCh4CegfW3D/RE8ACQKoDKSAT3rsc3tTlII5VEAWQTEaxu3+H1th7ui+AUgy5TUABjyxEs71M7q2/b+VQEJ7g8liyAxY8iWN+u51uqbWp5viuCExxbSBZAdimC9c36nqnyYYimZ2J4Agi8SGE/GPJRJYaP4T7S8dpaV9vbf3AwhvlXLgY9XGPQo/277RsxrHHXt6bv/E5r/0v7Yzi37OwHCQPIykcaY1jk4sNtl2+94N715HPtUcz/+muLKQNYbIriaTYr7DvS2nz15ru/mg8+crI3kt8RMfy3wCsR+r734zjuaP/VeLG8dDXr3F4aaI3mnOZ+Mp82gOyxpzNV73dnAh8w+HsCz06bcvWmz4Y+YvDXZKufHWo26GrfJf2snDyAbPbygwWjXvsSwKtjWfoAspmVfrNeszfey/IAIPukc49hr9Gff5/lA0A28c17jPvOVfnlcl4ArFwodRv4bY28Wpe3zdfnyuzy3ysHjPyWTv/2WpYfAFllvNzfaOr/u0f8+u1KlicAWTY92bfD4L/qys/r9nbJ+t0Nr4zc2OuX1X/Z6ru/marbwet6TebeE0eMPzt35rM6Hr3OF+X6nsj7RaFLw/V9n1zdr8oOHhgs5Xb65dGPR+t8ChFclm/o3T+4N4fTnxqdnKj/LySK5OcyPd0dLcVSsbQ9B4NfKs+X56/NzsTxc/EvAHtJMeCcGeJUAAAADmVYSWZNTQAqAAAACAAAAAAAAADSU5MAAAAASUVORK5CYII=;" parent="1" vertex="1">
          <mxGeometry x="109.25" y="249.25" width="62" height="62" as="geometry" />
        </mxCell>
        <mxCell id="bhsM0qureE1KK-jTyyGe-29" value="" style="shape=image;verticalLabelPosition=bottom;labelBackgroundColor=default;verticalAlign=top;aspect=fixed;imageAspect=0;image=data:image/png,iVBORw0KGgoAAAANSUhEUgAAAasAAAGrCAYAAAB+EbhtAAAM0ElEQVR4nO3dW6xldX0H8O9hYC50BgZQLgK9YJBSuQ4g1dYW2+IF1BotFeo19BJ5aWts00Yf+tAaG/rWtD70pQFSNW3SNkZjNJr4QB8sUWlrkFpaL0GEgg6KgDLDHLPaPw2kOHuf2XvP/7fW/nySlcmch5Pf2ees/3f9/+t/SQAAAAAAAAAAAAAAAAAAAAAAAAAAAAAAAAAAAAAAAAAAAAAAAAAAAAAAAAAAAAAAAAAAAAAAAAAAAAAAAAAAAAAAAAAAAAAAAAAAAAAAAAAAAAAAAAAAAAAAAAAAAAAAAAAAAAAAAAAAAAAAAAAAAAAAAAAAAAAAAAAAAAAAAAAAAAAAAAAAAAAAAAAAAAAAAAAAAAAAAAAAAAAAAAAAAAAAAACAidjoXQBzOybJmUmuSHJ+kh9LsjfJLr9HmGkzyeNJvp3kq0m+mOSOJPcmOdS7OGbTyNV2bJI9SV6e5O1JLm/hNHx9Wwswv0OYz2YLpieTHGzh9bkktyT5WJJH2tcpSENX0xBCp7aQuqn1prb1LgomagivzyZ5f5JPJHlAb6seDWA9w+/ksiR/kOSdSc5t4QWsxlND7Fe1f+9Lcn/riVGEsKrnpUluTnJNkh/pXQyskZ1JLkhyYZIvt4sihFUtL07yF4b9oJuhl3VWkn1JvpDka70L4n9pEGvYaDfHX7Z/vUuEfjbaO+OLk3w+yTd6F4SwquLsJH+c5Be8n4IShsA6PclpST6T5OHeBa07YdXfMBX9rUluTHJ872KA/zME1hlJHkpyZ5IDvQtaZ57i+zsnyQ1tgS9Qy4nt/nx+70LWnbDqa3uSX2xj40BNF7Y1j9t7F7LOhFVfu9tTm5sA6jouyfVtNxk6EVZ9DUOAL+pdBDDTsFD/Bb2LWGfCqq+f8zuAUdho9yudaCj7urR3AcDc9vUuYJ0Jq77MMILxcL92JKz6ek7vAoC5uV87OrZ3AWtu1wq+56G2eNGO0ayrjTaDb9kP4zaW7khY9bXMPQCfOpNn2MvsW+3/sI6GnXlOae+Y9hlBgsXd23pAi15DT+rWJFdaswX/Y0eSlyT5UDv9dxn32YO9fyjoZVlh9akkF9mtHZ5ho62Pul1YjZ/u8fg9keTDSe7yngqeYbOdSfURx9SPn7Aav/1Jvt6GOoBn+n4bwXikdyEsRliN35MmU8BhHfQwN37CCoDyhBUA5QkrAMoTVgCUJ6wAKE9YAVCesAKgPGEFQHnCCoDyhBUA5QkrAMoTVgCUJ6wAKE9YAVO36ay38RNWAJQnrAAoT1gBUJ6wAqA8YQVAecIKgPKEFQDlCSsAyhNWAJQnrAAoT1gBUJ6wAqA8YQVAecIKgPKEFQDlCSsAyhNWAJQnrAAoT1gBUJ6wAqA8YQVAecIKgPKEFQDlCSsAyhNWAJQnrAAoT1gBU7fZLkZMWAFQnrACoDxhBUB5wgqA8oQVAOUJKwDKE1YAlCesAChPWAFQnrACoDxhBUB5wgqA8oQVAOUJKwDKE1YAlCesAChPWAFQnrACoDxhBUB5wgqA8oQVAOUJKwDKE1YAlCesAChPWAFQnrACoDxhBUB5wgqA8oQVAOUJKwDKE1YAlCesAChPWAFQnrACoDxhBUB5wgqA8oQVAOUJKwDKE1YAlCesgKnbbBcjJqwAKE9YAVCesAKgPGEFQHnCCoDyhBUA5QkrAMoTVgCUJ6wAKE9YAVCesAKgPGEFQHnCCoDyhBUA5QkrAMoTVgCUJ6wAKE9YAVCesAKgPGEFQHnCCoDyhBUA5QkrAMoTVgCUJ6wAKE9YAVCesAKgPGEFTN1muxgxYQVAecIKgPKEFQDlCSsAyhNWAJQnrAAoT1gBUJ6wAqA8YQVAecIKgPKEFQDlCStg6jbaxYgJq/Hb0S7g2blHJkBYjd/eJOck2dm7EChoV7s/9vQuBMbs3qcdX7DIdVeSn0+yrfcPBIUM98PLkty9pPvswd4/0Do7tncBLMX5SW5O8r4k/5bku0kO9S4KOhlGjHYnuSjJu5Oc17sgFuelY19Dz+rMJX6/h5L8c3sCPLjE7wtjMjyEPzfJlUlOWeL3fah9XzrQs5qW5yS5pncRAMtmggUA5QkrAMoTVgCUJ6wAKE9YAVCesAKgPGEFQHnCCoDyhBUA5QkrAMoTVgCUJ6wAKE9YAVCesAKgPGEFQHnOs+rr15Ps6l0EMJcnehewzpwU3JfPH8Zls3cBAAAAAAAAAAAAAONk6vTRdVKSK5Ls6F0IsJDvJ7kjyf7ehawLi4KPnuOSvCbJe5Js710MsJBhgfCfJPlQkgO9i1kHelZHz6lJPp7kkt6FAEvxL0lemeT+3oWsg229C1gTwx6Mf5jkOg8IMBmnteHAT9vZYvU0nEfHxUk+0XpXwHQ8mOTlSe7sXcjU2XV99fYk+d0kJ/cuBFi6YdLU7yQ5oXchUyesVm946volk1lgkob7+uokr+hdyNQJq9X60SQ3JDmjdyHAypye5I1Jzu5dyJQJq9XZ3qaqX20iC0zatjaC8jrLUlZHWK3GMHHlp5K8xVg2rIXh3fSb2n1v4toKCKvV2JnkDUku710IcNQM9/uvtPufJRNWq3F+khsN/8FaGe73tyd5Ye9CpkhYLd8wBPCuJM/rXQhw1J2Z5PcNBS6fsFqu4Q/0tW1iBbCeXtXaAIG1RMJquYYp6r+dZHfvQoBuhvv/nZasLJewWp5hyur1SS71RAVrbaNtsXaDqezLI6yW54Ikr0+yt3chQHd7W3twQe9CpkJYLcfu9q7qMr0qoLUD+9pC4T29i5kCYbW4p/4o32Z9BfA0O1u7sM9D7OKE1eKG7v5NSX68dyFAOcP+oO/wemBxwmpxV7UhQIBn88tJXta7iLGzw8Jihqel9yc5p3chQFnHtR7W3yf5Xu9ixkrPajFvbVPVAQ7n0raxNUdIWB25i5L8hkkVwByGduI3k1zSu5CxMgx4ZPa0/b+udgIwMKcTk2wmuT3JE72LGRs9q60bPrOfbcdY61UB89rRDml8qbZ363xgW3dakl81qQI4As9Pcl1rR9gCYbU1w7DpT7ep6ob/gK3a1qayv8RrmK3xYW3N6Un+PMm5vQsBRmtXkrOTfDTJd3sXMxZ6VvMbtkv5tdazAljEi9vSF9swzckHNb+hN/XxJD/RuxBgEr7SJmp9qXchY6BnNZ9huPS3WtcdYBnObGuvvI6Zg7Caz3CQ2itNqgCW6LjWrlzUu5Ax0PjONgyVXmtX9ck7lORg+7eKY9o96qFyuoZ25Zokd7YFw/wQwmq2U9uhirt7F8JKDOH0QJJ/bVel2VnDTikXtp79ad4xT9LQrlye5LlJ/rt3MZUJq9nO8a5qsoYn2S8n+bMkf5tkf++CnsVJSa5P8nsWok/W2e13K6wOw/DCbGdYbT5Zjyb5QJLbigZVWl23JvlgsV4fy3NqW8PJYQir2fa24Rim55tJPpLksd6FzPBoq/ObvQthJU5wkvBswmq2nTasnazH2jDgGAx1Pt67CFZiZ9vVgsMQVrMdKjZDjOU5th3bMAYneMc8WZvamNmE1WyPO4p6sobJCz8zgll2G+1YGkNF0/T4CIaiuxNWs30rycO9i2AlhrB6c1uUWTWwNtrU9Te1epmeh1s7w2EYVpjtvrYOx6Lg6dnWeizDTvp/005wrfRgsrcd1PfmthbHtjzT9EBrZzgMYTXbfyS5J8mLCj99c+R2tsC6vB01XundwTHtdNkdRkEm61BrX+7pXUh1wmq277Qn7mEPr1N6F8NKDEFwfLvgaNrf2pdHehdSnae1+XyyPfnYuwtYls3WrnyydyFjIKzm859J/i7Jgd6FAJNxoG3z9V+9CxkDYTWf4Qnor5Pc0bsQYDI+l+QWIzbzMbtofsNaiLuTvNoO7MCChhmANzoleH7CamvuT3JvkivbfoFmBwJbsdnakHcl+VSx2aelCautGf6wvtI2FD0vyckCC5jTU9PU/zTJP9jrcWuE1dYNa3H+vYXWWe0SWMDhDEH1T0nem+QfHfeydcLqyBxoMwRvb3+EP2lnduCHGNZS/VWSP0ryGXuNHhk9gsUNC0nPTfKWJNcmeV6S7e1B4Jj2GfucYdo2n7Z7+sH2QHtfO4fstjb8Z7PaBWhEl2uYdHFJkn0twE5sX7NTCEzbwbYLxcNti7ZhWvqdhvsAAAAAAAAAAAAAAAAAAAAAAAAAAAAAAAAAAAAAAAAAAAAAAAAAAAAAAAAAAAAAAAAAAAAAAAAAAAAAAAAAAAAAAAAAAAAAAAAAAAAAAAAAAAAAAAAAAAAAAAAAAAAAAAAAAAAAAAAAAAAAAAAAAAAAAAAAAAAAAAAAAAAAAAAAAAAAAAAAAAAAAAAAAAAAAAAAAAAAAAAAAAAAAAAAAAAAAAAAAP6fHwB984/hnO8OvwAAAABJRU5ErkJggg==;" parent="1" vertex="1">
          <mxGeometry x="95.5" y="325.38" width="89.5" height="89.5" as="geometry" />
        </mxCell>
        <mxCell id="bhsM0qureE1KK-jTyyGe-30" value="" style="shape=image;verticalLabelPosition=bottom;labelBackgroundColor=default;verticalAlign=top;aspect=fixed;imageAspect=0;image=data:image/png,iVBORw0KGgoAAAANSUhEUgAAAYYAAAGGCAYAAAB/gCblAAAgAElEQVR4nOydC1zO9/v/r/u+uzuXSlEOoyiHmhVhTkWT83EYwySn5nyYsa3v5rzvz8yQYdkIczYRM0QokeZQDolCDqlQis7ddfd/XL6f9mfLVO/33edz367n4/Gaoa7P+5P7fl335324LllpaSkQVQN/dpGRkYYAYAUANeLj42v6+fk5AUALAHAAAEsAsHjpV2MAkIk9boLQQtCo8gEgU9Az4de7AHA5MDAwoVmzZk8A4DkAPO3YsWO+TEZvtaoio8RQeRITExV79uypq1ar3b7++usOANAMABoKycBY7PERxFsIJo0kIVHEL1q06KxcLr80ZMiQB46OjiViD07boMRQCX788UeDP/74o+Pjx48/vHjxYksAaAAAtvQUQBCSAk3tEQDcb9WqVWytWrWCe/XqFTFlypR8sQemLVBieAP37t3Tu3HjRp3Bgwd3LSws/FSlUrkAgAEAyMUeG0EQb0QNAIVKpfKGgYHBT7/99lto06ZNHzZo0EAl9sCkDCWG1/D06VP51q1bG23dutX7/PnzQwEAp4wUYo+LIIgqg0niXOvWrXeNHDkydOTIkYlWVlY0zVQOlBjK4fvvv5cfP3582NGjRycBwHsAYCr2mAiC4EYuAFzr3r37T127dv119uzZlBz+DiYG0v+UmJioXLx4cQtDQ8ONwq6HUhKJpLN6bmhouHXx4sVuiYmJ+mL7j5RETwwCR48eNevbt+9olUqFTwlNaEGZIN4abimVynUHDx7c2L179yyxByMJxM5MUlBISIhtnTp1lgJAtgQ+xZBIpOpXbp06dVaEhITUE9uPpKC3+okhIyNDFh0d3eSTTz5Z+PTp074AYCj2mAiCEI1CKyuro1ZWVv5nzpyJq1Wr1ttrjmJnJrF0+fJluZOT0/sAcEkCn1ZIJJJ0dM3JyanT5cuXFWL7lFgSfQBi6OrVq7KWLVt2BoDzEngRkkgk6elyy5Ytu129elUutl+JobduKunRo0eydu3auSclJa0GAHc6m0AQRDngmYfL9vb2U6KioqJq1679VhnlW5cYWrRo4XL16tVtQqE7giCIf+Nmw4YNh//++++XnJ2dxR5LtfFWlXUICQlxSktL+46SAkEQFaTJ3bt3l61du/btyQpv0xPDsWPHLH18fJakpqaOBQD9ar782/FDJojqobrPGKns7Oy2bt68ea63t/eTar62KLwViSE5OVm/fv36UwFgEQAYafBSWJjrMQCkGxsbp7m7u8cJZYAzsPwSAORRkiCIKiET3rvY+8Qay9xfuHDBOS8vz1b4fS0AUGrw+oUAsPj3339f1rt370INXkcS6Ik9gOrg119/xUXm6RpMClg+I7ZOnToRvr6+0QAQZ2Nj82D69OlUg4UgNMSqVasUT548qQ8AzkFBQW1TUlI6AYAbNs3SwOWwovLkqVOnnundu/dJDcSXFmJvi9K0li1bZmFkZHRUQ1vacOfCwREjRgw5fPhwo7Nnz+qJfb8k0tsofO8dPnzYYcSIEYMA4IDw3uT+njcyMjq1bNkyG7HvV9MSfQCaVFBQkKGent63AFDA+QWSAwBhzs7O3XNycvQLCwtlYt8riUQqBXwv4nvS2dm5G75Hhfcqz/d+oZ6e3oqgoCBjse9Vk9LZXUmZmZmyI0eOdCouLv5IeAzkxQMHB4cl06dPH/X7778fNTExKdLX16d1A4KQAPhexPfk77//HorvUQcHh8XYyY3nJYqLiz88cuSIV2Zmps76p+iZSVOKj4/HRapdAFDC8dNCvImJyaAzZ85QiV4SSQuE71UTE5MBWOaC9xRyfHy8tdj3pynpZMZLSUmR9enTZzAADOR0VqPEzMzs2E8//fRJUlLS/vbt2xdxiEkQhIbB92pSUtKBn376aZSZmdkRACjmEBZ3SPXo06fPJ+g1HOJJD7Ezkyb04YcfOgLAbV6fEExMTI6tX7++kdj3RSKRqq7169fbm5iY8NyI8uDDDz90Efu+NCGde2IIDQ01uXjxIp5ZeIdTyAvLli37cvz48bc5xSMIQgTGjx+ftGzZsi8AIJpTSLuLFy9ODw0NNecUTzLoVGJQqVTyqKioHvfu3RvE6YxGwvfff/+f8ePHX+IQiyAIkRk/fvxlfE/jeqHwqZ8Fxb179/oPHz6879WrV3WqGKdOJYYVK1Y0nD9/Pj4t1OEQ7nmjRo1WtWnTJkxPT0/NIR5BECKD7+U2bdqcbNSo0UrhYCorNhkZGVMOHz7cmEMsyaBTJTGMjY2/zs/P/5rH0XhbW9vt27dvn9SlSxceLx6CICTEyZMnzYcPH746LS1tFIdwJUZGRt/n5eV9wSGWJNCJJ4bCwkJ8RHQuLCycyqleSmrdunUXU1IgCN2kS5cuz+vWrbsEAB5yCKcoLCwcP378eHf0Ip1A7NVvHlq4cCEW0drH6Rh8TqtWrSY/e/aMyluQSDosfI+3atXKDwCyOZ1tOLxw4UJbse+Lh7T+ieHOnTvKY8eOfQgAHhzK8eI/7gl/f/8D5ubmPPY7EwQhUfA97u/v/ztW5Rfe+yyg97Q7duzYkDt37lR3WX/uaH1iuHfvnv3p06exx4Ilh3CPhg4d+ouHhwePx0uCICSOh4dHytChQ3/G6WMO4WqgF/Xv399Rrdbu/SpanRguXryo5+XlNRcA2nB4Wig1MzPb2KlTp4M1a9bU7n9VgiAqRM2aNUs7dep02MzM7GcO21eR965du/afmJgY7X5qEHsui0Xt27fv8lLzG1ZdW716tZ3Y90Qikapfq1evxkY/lzl5SWH79u17iX1PLNLaJ4YNGzbUun79+lxOzXdyAWD5uHHj0jjEIghCyxg3bhy27FwmLESzon/9+vXZGzZsqMshlihoZWI4fPiw4cSJEz/NysrqxCFcsZ2d3fbw8PAQQ0ND3TnUQRBEhcH3fnh4+CHs7Sy06GUiKyur3cSJEycdPnzYmM8IqxetSwzYiGPfvn2tVSrVCDzTxiFk4vjx4zd4eHg85RCLIAgtxcPDI3P8+PEbAeAmh3CGKpXq43379rVHz+IQr1rRusRQUFBg8PPPP08CAB5H0NUuLi5BQ4cOvcghFkEQWs7QoUNjXVxcNnDYvoo0/Pnnn6d+/vnnhhxiVStalRgePXok69GjB/ZYGMRj7DKZLLply5Y/Nm/enM4sEAQB6AUtW7ZcJ5PJznAIh08KvUJDQ0c8evRIq7xW9NXvymjy5MlOABDLaedA6oABA7qLfU8kEkl6GjBgwAdCuQweXnN98uTJWtW3QWuyWHR0tElYWBgeZGvCIRwuLu2cM2dOFIdYBEHoGHPmzPkTALYDAI9ujY3CwsLGR0dHa03fBq1IDDiF1K9fP88bN24Mx0UdxnClhoaGMYsXL97g5ub2nNMQCYLQIdzc3LIXL1680dDQ8CKHg2/6N27cGNqvXz8vbZlS0opBHj16tNbjx49nA0A9DuHyvL29V/n7+18zNNS6NSGCIKoB9AZ/f/94b2/vFcI5J1ZqP378eM7Ro0ftOMTSOFqRGBYsWPAxAPA4swBGRkbH/fz89vGIRRCEbuPn53fQyMjoCKdwbRcsWODDKZZGkXRiKCoqgrlz576bnJw8mVOrzodWVlb/7d27dz6HWARB6Di9e/cusLKyWgoA9zmEkycnJ4+fO3dua/Q2KSPpxLBly5aa33333dyioiJ7DuFyXVxcVkZGRsZyiEUQxFtCZGTkFRcXF5xSymGNVVRU9A562pYtW2rzGZ1mkGxiePLkid7evXt7AUA37JDEGA4Xj85MnDhxb8OGDXWkxRJBENVBw4YNiyZOnBgMAKc5HHxDz+2yd+/evk+ePOHRbVIziL1f9nXy8vLCAlTnOO0jzurevXv/1NRUudj3RSKRtE+pqamy7t274wfVTE6eFOPl5dVA7Pt6nWT4H6kRFxen17Fjx++zsrKmcwhXWq9evdUPHjzgEYsgiLeY+vXrL0tOTp7FY7bFwsLil8jIyMnOzs6SW3CQ5FTSvHnzOmRlZY3gFC7Ox8dnDadYBEG8xfj4+PwEAFd5xMrKyho8b968Ljxi8UZyiWHfvn21IiMjpwKAFYdwuFi0buzYsUkcYhEE8ZYzduzYewCwFgB4HI41j4yMnLJv3z7J9W2QVGKIiYkxGDp06KhHjx714DC2Emtr6/379u3b3bBhQ+b66gRBEA0bNizet2/fb9bW1ngWirX4pvzRo0ddhw4d6hsTEyOp07aSSgw7d+50VqlUWA/JhEO4BwMHDlw3YMCAdJlM68qhEwQhQdBLBgwY8HTgwIFrOZ1twL4Nvjt37nTjEIsfYq9+l2nhwoWgUCg2CdvBmFf969atO//SpUsKse+LRCLpntBb6tat+xWnHUqlCoVi98KFC2Vi31eZJPHEkJGRIQ8NDR1YUlIyRKhhzkrUyZMnf3RzcyvhEIsgCOIV0FtOnjwZKJxtYN7aWVJS0jc0NHQ4eiGfEbIhiUGsW7fOITIycjanVp1pXbt2/c7W1pZadRIEoTFsbW0z0WuwtwuHcIaRkZEz1q1b15RDLGZETww3btww3rt370gAcOUQDheZQyZOnHjKzMyMR2s+giCIckGPmThxIj4x7OPUt8Fl7969n9y4ccOUQyw2xJzHKikpATs7O09cKOYxT6evr3911qxZLjk5OaLP0ZFIJN0Xes2sWbOa6evrX+a03pBmZ2fXDb1RzPsS9eJHjx7F3UdhnH6gRe7u7j5iv1BIJNLbJ3d3d2wiVsjJy84ePXrUXMz7EXUqaeHChR8BQGdO4U7MmjVrL6dYBEEQFWbWrFkhABDKKdz7Pj4+n4SEhIi2z16UxKBSqWDp0qXvxsTETOU0hgempqbLBg4cyKPTEkEQRKUYOnRoXmBg4HIAuMshnCwtLe3TU6dOtUKvFANREkNoaKjlF198MTUvL+9dDuHyHB0df46IiDhjaGgovYqABEHoPHK5vLR169ZRjo6O6zm1Am2+cuXKaaGhodYcYlWaak8MBQUF8qCgIC8A6M+pK9vFYcOGbXNzcyvgEIsgCKJKuLm5FQ4bNmw7AJznEA69uVdQUFB39EwO8SpHdS9qDB8+3Ixjn4Xi1q1b979//75kTgySSKS3V+hFrVu37inUUeLhcZeHDx9uWd33Ua2ZKDExURkdHf05NsXmEE6tUCg2//nnnyH169enKSSCIEQHvejPP/88rFAofsYDzRxCtoiOjv5PYmKiPodYFaZaE0NAQMD7t2/fHsUpXPzo0aN/5BSLIAiCG6NHj14HANd4xLp9+/bQTz75xDMuLo5HuApRbYkhPDzcJiQkZDwA8Kg9jn0WNo0ZM+Y6h1gEQRBcGTNmzA30KADI5hDONjo6ety1a9fsOMSqGNUxX5WSkqKnVConCobOOudWYmFhsXfDhg3WYp8OJJFIpPKE3rRhwwZLCwuLXcKUEqvvFSiVylkpKSnK6hh/tTwx7Nq1y0GlUk3j1GfhaceOHZePGTMmXS4XvdQTQRDEP0BvGjNmTCZ6FQCkcwhpoFKpJu/atcuJQ6w3o+nMExAQIDMxMQngtEJfamxs/P3Zs2flYn8iIJFIpDcJvcrY2Pi/vPzPxMTkl4CAAI33mdHoR+6srCz5iRMn+ufm5g7jEO5FDZEjR46sadeuHVVOJQhC8qBXHTly5CcAiBA8jInc3NyBJ06c+Ai9lc8Iy0ejwffu3dtg//79kwGAx+m9Jx06dPjR3t6eRzs9giCIasHe3v4BehcAPOIQznL//v0T9+7d25hDrNeiscSQlpZmsGHDBuzI1o5DVzZcvDny8ccfH61Xrx51ZSMIQmuoV6+e+uOPPz4GAH8IB99YQC9137Bhw7C0tDQjTkP8J5qao3rvvfda8uqzoFAo7o4ePdr5+fPnos8ZkkgkUmWF3jV69OgmCoXiDqf1hkfvvffe+5oar0aeGCIjI03u3r37DSZLDuGKbG1tvw8KCoozMzPjEI4gCKJ6Qe8KCgq6aWtru1To28BKrbt37y6IjIw05xDrH3BPDCdPnpT5+Ph8+OzZs668Qs6aNWsPp1gEQRCiMWvWrGAAOM4j1rNnzzr6+PgMQ8/lEe9luCYGPNQRHR3d/M6dO58CgDGHkA+WLFmyZsqUKU84xCIIghCVKVOmZCxZsmQtANzjEM7ozp0746Ojo13Re3nCNTFcvnzZ7Msvv5wgFMljzWKF77zzztb333//mL6+Pm1PJQhC60Eve//998PeeeedLXiamTEcemzLL7/88tPLly9bcBriC7gmhnXr1nXAZkYAoOAQ7nq3bt1+8fLyoj4LBEHoDF5eXoXdunXbAABXOYRDDx+8bt06Xi2S/wevVewZM2YYyOXyCE4r7iUODg4f3759m/oskEgkndPt27fBwcFhMK++DXK5/PyMGTOMeY3vhfGycvfuXeVHH300+/z58ws5dGXDybJf9+7dO93CwgIHZ8DpCYQgCEIKoMcVZmVlwaBBg7CW0hgOHlfSunXr/+7evXtxw4YNmXc9MSeGe/fuwdixY9uFhYVtBICmrAMS5t1+E85AWAJADQBQcohLEAQhBVS4qQgAMoU2BHgQmMdhtVsffPDB+A0bNpxq0KABWyTWR47w8HArAAgUbpbHNJKaYywSiUSSslScynKXxdqMvW9EnUrC7zUwMPBRqVTrOGU8giAIouoUKZXKGYWFhetksqpvDGXalbRr167aKpXqS0oKBEEQkkBfpVLN2bVrV32mKFV91Pj1118VNWvWXCSBRzESiUQivaSaNWsu//XXX6vc7a1KTww5OTnyiIiInhkZGT5MWYkgCILgTkZGxrCIiIj+6NVVClCVbHLo0CF8TDkoLBSLnh1JJBKJ9A+FTpkyxb6oqKjSHl/pb8jPz1d06dJlKj44SODGSSQSiVS+8gBgzvPnz/U0nhi6d++OnYNSJHDTJBKJRPp3PenevXtzja4xXLhwwfTGjRvYZ8GuSvNWBEEQRHVifePGjQUXLlyoUanvqmgGuXDhgszFxWUYZiAJZEESiUQiVUxPXVxcRl+4cEHO9YlBrVZjSW2na9eujQeAmlVNXQRBEES1Y3Ht2rVxly9fbo5eXiEqkj1SUlIMAWApr0qAJBKJRKpWYUYI2L17txG3J4a1a9e2BIDRVOWUIAhCK8H6GCO/+uqrdhX66jdljkWLFhkZGhr+LoGMRyKRSCQGGRoaHl+0aJEZ0xNDSkqKfmRk5KSCggK+3YEIgiCIaqegoKB9ZGTk9JSUFIN/+7rXVld9+vQpjBkzxj0kJOQXAHhPUwN9CRzIHQBIBYAsoVY5Knv69OnFlpaW1TAEgiAIzZGZmQmrVq3CZmZmQr8ZlIVwBMBBmPLRNNf79+8/fuPGjVFWVlblJoDXJobExERTJyenbwHgUw03ykkHgOMAcPTQoUOXDQwMngvNevIFFbZv315tZEQFXAmC0G7y8/Ph7NmzcqEzpZEgw8LCQvPevXvjB/AeANBVw7s/cRPRpoSEhM8cHR2fl/cFr00M9evX75+cnLxLuAGe4AUz6tevf7ZOnTpbXF1djwQEBGAiUOvr65c/GIIgCB2nqKgInxbk06ZNM4yNje2VkpIy6sGDB7hYbKWBJwlVvXr1Pnnw4MGucv+2vIWHAwcOmJiZmZ3UwOIHPgEcd3BwGH7ixAnLyh7TJpFIpLdF6JEODg4jhBmVfN5+bGZmdga9vrxrlzugIUOGfAQAzzkPJAkAZqxcubJRVFSU6D90EolEkrrQK9Ez0TsFD+Xpyc+HDBkypLzr/uMPAgMDG+jr65/kWFJbpaend3bq1KktMzIy9IqLi0X/YZNIJJK2CD0TvRM9FL1U6O3Mw5tx+j4sMDDwnb9f85Xtqunp6fphYWH9i4qKWnGa08oFgODx48ePCggIuGRlZVWsUNAZOYIgiIqCnoneiR6KXoqeKngrK7KioiL3sLCwvunp6a9uMHo5SwwcOLAhAPzJKRthLfBVfn5+9bOzs2ViZ10SiUTSdqGXoqeitwoey8Orz1y6dKn+y9d55aKmpqbTOdVDKlEqldsmTZpUIycnR/QfJolEIumK0FPRW9Fj0Wt5TPc3atRo6svX+Gsq6cSJE/rFxcWjONRDwrWJCD8/v9lr1qx5ZmJiwhiOIAiCKAM9Fb0VPRa9VvBcFvQePnw4GnPAX39SliF69uzZjtOjyeUJEyZ45OXlVbj2N4lEIpEqJ/RY9Fr0XA6+nduzZ8+2ZbFfPDHk5+fLi4qKsAmP/r+llQqQMXLkyFXLli2LMjIyYs1iBEEQxGtAj0WvRc9F72UMZ1BUVDQUcwH+5sV/VqxY0SQsLMyDdRrJwsIionPnzjvNzc1VjIMkCIIg3gB6LXouei9jKEVYWJjnihUr8MzEX2sMrQGgAWPgfAcHhx/Gjh2bxxiHIAiCqCDouei9wuloFnBXahv8H3lsbKzBunXrmgoV/lgIDgwMPM8YgyAIgqgkgvcGM4axWLduXbPY2Fh9eXZ2tlVycrIz44G2h25ubmtdXFwKGQdGEARBVBL0XvRgbKPDEEaOuQBzgp5QD9yRcVyx33777X1DQ0PGMGykpKTI1q9fbyrck5Xwaw1hr+/Tl/o8PPX29i7o0KGDqOMlpM/u3bv1rl+/Xl+olV+T2tu+9ZQKdeTuGhsb350zZ44kps7Re9GDe/bsGQsAdRhCNUbf1JsxY4YNANgzBMIDcTiYRwwxmNi6datlUFBQx+fPn3944cIFTHKYoYyFWucGwj7fsh4P+OuzrVu3xjZo0OAPV1fX8OXLl5eINXZCmty6dUvfz8+vz7Vr10Y9fvz4HeGDhtFL63LE2wkmBpwZyVIqlU+OHj26f+LEiZsHDx78TOyBCR6MW1e7M3yAcZgxY8aLXhCzGfe/Pvjiiy96qtXqatu/+/TpU72oqKj6bm5uw5VK5UGFQvFUSFCVKfyHX1ssk8nuK5XKn5VKZZ/w8PCad+/eFX1/Mkk8JScnyzp27NhIT0/vVyyRz6nkAEl3pVIoFKdMTU29rl+/LurZLfTgL774og8AJDPeE1ZyhUDGIH/6+/vXrq6bDwoKqunr6ztOqFFewPEfGB8JN3l4ePRMSEgwFdugSOJoyZIl+Ch9mGN1YdLboQfdunVrK/br19/fH6eRLjLeyzpMDL+xBHF2dt4fHx+v8SJ5ERERyn79+nmbm5vvF9YLNPGPi1NK91q3br1x0qRJTcX+RyZVr+Li4kyaNWu2kGNxMtLbI7WNjU3wzp07a4n5Go6Pj5c7OzsfYryXPZgYwlmCeHh4rNH0zZ45c6amiYnJPKE/dHV8ksPy4LdHjRo15OrVq8ZFRUWimxZJ8zIzM+sqvMbENhmSdirXyMhozunTp5Vivo49PDxYZ4FOyoVFNRZSGb//Xzlx4kTD/v37L8zNzf2PsCuEd+/T8lCUlJQ4bNmyZdW77747fc2aNaxnPAgtIDs7u4uGm7ATuo1xfn5+2+LiYrFfQ6yebK3HITFoZDdSamoqzJ492zkqKmp+enp6P6wAqInrvAE7AJjr7+9vq1Qq502ePDlLhDEQ1Yeb2AMgtB574bBwmohjYE0MVqyJoVRTP4CEhAT77du34zFvL5GSQhk18vLyxs+ZMwdUKtWL5KBUKivwbYQWQomBYMWeQxUJVlIFb67q7IqVXNjzzwL3Ax7h4eGW/fr1w0XAbiInhTKM8vLyfGbOnDnx5s2bxmIPhtAYrLVmCKJI2MQiJqxtPw0ld1gnLCzM2NfXd9Lz588Hiz2Wv4EnqKcuW7ast9gDITRGjNgDILSeJKHCglYjqcQQFxenGDFixIdJSUnTODzJaAK7bdu2/d/kyZObiD0QQiOU9TsniKqAr51EYTu9ViOpxHDs2LEGjx49mgQAtcQey+soKSlpcP78+TmJiYmmYo+F4EunTp2OAMB1scdBaC2PmzVrdsja2jpT7IGwIqnE4O/v3xcA3MUexxtQnD9//oNx48Z1vHfvnthjITiyY8eOG7169fpJKLRIEJVB3aRJk71BQUF/uLi4aH33SskkhmnTplkVFBRMBwBt2PJTLyIiYti9e/fE3q9McKRu3bqFnp6e2+Vy+V5hEZEgKgIuNl92dHT8tm3bts/FHgwPpLDjB5KSkmRRUVEz1Wr1O2KPpYJg5cIhXbt2/a2oqOh3sQdD8GPOnDlPnz17NuHEiRN/njt3bppQkt5A7HERkgSfDO47OTltd3R0XH7w4EGtX1soQxKJYdu2bbUuXLjgqYFa9yrhAJ4+ANhwPjWN21bx4B0lBh1jyZIlpWlpaUHr16+/tHv37s5xcXFNhX4M1lJ6yiZEobSsH4OJicntOXPmnO3evXtE27ZtdWqrsyQSAwC0AABeTwv4DxcNACG9e/e+/Nlnnz168uSJcujQodhsxRUAhjP2n/iL4uLi7p999pmC+jnoHra2tsXffPPNxUGDBl16/PixudD0ybiaSrIQ0qW0rB+Dvr7+sw4dOhSLPSBNwVJsSe3h4fEBS8Gn8PBwPblc/rXw6Z61iNVNOzu7mWFhYTVUKpWspKTkr+uoVCqUbMSIEdZNmzbFIlOPORTkK/by8vIUu/gbiUQilQk9mdXbRH8sLi0ttVGr1a04PL3cmzlzpl9gYOAqLy+vZ3p6eqVy+f+/PT09PVTp1q1b04ODgz9r06bNfKGSJgt4gZ6MMQiCICSF6IlBqGbJemAM5/eWL1myJKJv375v3CrWrFmznE2bNm1p2rRpMON1ZVeuXHHbvn27PmMcgiAIySCFxGDMeKBNXatWrd2hoaE7DA0NK7x/GJNDq1at/AHgNsO1IT093SIhIcGSJQZBEISUEDUx4HxYSEiIqVCHqKpk+vn5HfP29k6XySq3Lrhp0ybcXraD4dogNIinxEAQhM4gemJYsWKFNeM2VTyleqeqQ8CDKYz1cQwlUGaXIAiCG2JPJeFH/DqMMaqcGHBBeteuXfcB4AnD9emJgSAInULsxAAcSmCUCPuKqwvAEfEAACAASURBVISNjU0JY/kDmYTOgxAEQTAjdmLg0QEO1ycaVOUb1Wo1LF++HBe+azNcH5PSM4bvJwiCkBRiJwawsLBIY5zjt8rNzW1cVFT5D/1qtVp26NCh9xifWvKpGidBELqEqIkBD6Dt378/W6g9UlWsfvjhh06nTp0yq+w3RkREYKmD/gzXRgooMRAEoUuI/sTA4RM3ftofEhgY2BlLXlT0mw4ePCgfOXLkGABoy3BtEBKD1rfyIwiCKEMKiSGLYbtpGXWCg4O/8fHxsXxTcsAtsvn5+fKTJ096pqamfspYFK3U3d09YcKECazNtwmCICSD6InB0tIytXHjxmeF3UUsuO/YsePosGHD+oSGhpq9bs3h+PHjNsbGxlNWrFixCQCcGK+pNjc3D65Tpw71CSYIQmcQfZtlixYtinx8fGK//vrrdMbdQYh7cHDwT8HBwXtmzZp12sTE5BYW1xMarTTCctuBgYHdcepJOJjGhEKheObr6xvJGocgCEJKiJ4YBGIB4CGHxADCgblJP/zwwzAAeCpsJcWT1VbCCWVLXk9Kcrn8zMiRI2l9QUcJDg42Wb16dQthHaql8Nri3UyK0C5wdiADAK4AwMVOnTpFLVy4UOc2n0giMdSrV++OhYVFZFZWlisn01YKSYZHonkdBS4uLqx1lggJEh8fb9CmTZuOeXl589RqdXvhNUkNeoiXGYRJIjw8/Pa33367eMOGDQd9fHx0JkGIvsaAjB49urRt27brhU/42kLk2rVrT4s9CIIv586dMxo4cODonJyczWq1upPwhEBJgfg7+JqQl5aWOpaUlKwaP378t7t37zYXe1C8kERiQBYsWHDdwMBAWz6BP/X19d3RpEkT1lPbhISIi4uT+fr6et28efNLAKgr9ngIrcFCpVKNmTJlytidO3fqxIcIySSGtm3bloaGhq7F96fYY3kDuBPppIeHxz5LS0ud7ff6NnL+/PnGN27c+Jxj/3Hi7UH/yZMnUyIjI71zc3O1PjlIJjEgDRs2TOrYseNGAMgWeyz/Qnrnzp1Xjx49WmfmE4n/gU8LANCJpo6IKmK/Zs2aD8+fP1/pKgxSQ1KJ4Z133ikcNGgQTicd4HCuQROoTExMVs6ePfuM2AMhNEJrqb0nCK0CP1A46kIZfsm9CcaNG5fq6+v7uUKhOMdYXI83hdbW1utCQ0N/6tSpE00h6SZtxB4AofU0FrbGazWYGFhNTp/TWF5gamoKGzduTB0xYsRUALjGMzYDxfb29iG7du1a3r59e5pC0l1Ym0YRhKXQvEtMWD25WM5hPt+a8fvLJSAg4JqPj89XAHBVAk8OYe3atVvo5eV1X+RxEJolQewBEFpPqgTWSFk9OVtPKGJX1TkxnFOzYxxEudSoUUO1atWqo6WlpQ+3bdu2uqSk5H0RTp3mm5ub7z5w4MB8Jyenu9V8baL6uQAA7cQeBKHV3JJAGX47xg0UWXION6Gx/d6YHDZv3hwzatQorG20k7FvQ2VJtbe3n3/gwIHpnp6ed+3sNJL/CAnh6el5SgKf9gjtpbB58+aXbGxsMkQeB6snZ8o59BLQZNmJFwQEBKSuWLHi844dO86vhnUHLMsaUbt27Zk///xzgKenJ7XtfEtYtGjRaQnviCOkz5Vhw4btcnZ2zhd5HKye/CInbBPm8KskU1PT02vWrDHFPgea1r179wzCw8ObGBgYrAKAx8IbuMpj/5uK5XL5LaEkd8Nr167Jq+OeSNJRdna2bMaMGe8rFAoskKbm+Noi6b7yPD09B6WkpIjqG+jF6MmM94I5AWYzBrnr7+/vVZ03f+7cOVn37t2dLSwsVgnzwqnC7qrKjr1IaBIU4e7uvnDq1KmWYpsTSXz5+/u3UygU4fhml4DhkKQt9JCrnp6eY8V+3QqvXTykeZfxnmbj4vN14ZN3VRd2a506daplYmLiKUdHRzXjI0yFwPIZR44cidu0adOM5ORkBwB4b/Pmza63bt3CBWp7YTHdopx7KhIekx4BwE25XB6zYMECPC9xbcSIEU/s7e1Lq2P8hLRZvHhxVG5urs/KlSux9as3ADTRhUNLBFfyBAM+3bNnz40bNmy4JPaAEhMT5ejF6MkMYTAXXJcFBAS0nDZt2iEAsGUItv3w4cPTe/Tokc4Qg4krV67oZ2Zm2goJwXDAgAEmWVlZZaW3MSGkzJw5M7N///74D4qtOJ/KZLJ0Dw8Pmk8m/kFOTg5cvHjRBHd4JCcn24wcORI/gNSnfgxvPfjh8cns2bMT+/Tp8wRnKxo1avS0Xr16Yo8Ljhw5Yt2zZ0+cRRnOECYtICCgt56rq2umsMWKJTG0u379emNvb+90hUKc9w12ggOA+4IgI+OfGwNkMtkLEcSbwIOWnp6eucJ749bHH38cRTWUCIFSqXlJSUkJoAdz2G59C3OCntADAaeTOjIEa/DZZ5/19fPzu2BiYiKJchFyueSqfRBajPB6oqlGQpIUFBTooQejFzOGwlzwVO7s7Jw9atQobK2ZwxAM3zXj5s6dW59xUARBEEQlEbx3HGP9uxzMBZgT5FZWVuomTZr8WTYFw0CtEydOfPXw4UMDxjgEQRBEBUHPRe9lXHRG7mMuwJzwIru4u7vHN2jQIJH1UTk+Pr7XyJEjO9++fVs6k28EQRA6Cnotei56L2OoUswBmAug7LGjW7duec2bNz/JodJq7VOnTk2NiYmxZ4xDEARBvAH0WvRcDqedizEHYC6Al+ej7Ozstsnl8seMwXFLUvcJEyZ8c/nyZa2vSU4QBCFV0GPRa9FzWbdRo/djDij7vQxPy5VhZma2OCcnx59xvEipra3tvN9++21Zhw4dCjjEIwiCIATOnDljOHjw4M/T0tIW8NhGbWpquiQ7O/s/Zb9/ZQV77ty5+wAgmfUiONC0tLSpY8aMGYE3wCEeQRAEISQF9Fb0WE5na5IF7/+LVxLDgAEDEs3MzA4IBcRYsU5ISPgvZjWaViIIgmAHvRQ9Fb2VU5M0NXo+ev8rf/r3IkyrVq3Ck3NxHItMqS0tLTft2bPH4datWzKxi0yRSCSStgm9Ez0UvZRz5d849Py/X+8fA4iJiTFwdXWdh4fpOF5cBQC/d+7cuXtycrKB2D9kEolE0hahZ6J3oocKXsrLlwvQ69Hz/37Nf5ySc3V1LXRxcVknk8kS//53DGDpjR6nTp3a6O3tvWbKlCkOubm5eljfgyAIgngV9Eb0SPRK9Ez0TvRQwUu5gB6PXo+e/4+/K31pV9LLDBgwoH9ISMhm7LDJayAvgVUJNyxfvvxg8+bNE7E6oaOjI2UJgiDeahITExW3b9+2un79uqNQ+2gsANho4FLP+vfv77N///6Q8v7ytYkhMTHRzMnJaTEA+AGAJspc4DzZAwA416FDh9jOnTtfrFOnzp+TJk2iVpoEQbxVrF27tkZKSkqbU6dOtTpz5owrALwvlHnXRDVQfEIITEhI+I+jo2O5Pc5fmxjy8/NhwYIFjZYuXfoTAHyg4ZLDuJ7x2NTU9GHLli2xG1uasG02RWjhWaTBaxMEQVQn+kJdozoAgI0cbC9dumSXk5NTV/hzTW7xR8MPmzt37qfz5s27bWRk9JqvesPCx5IlS941NDS8KlLbPDWJRCLpqKrdU9HL0dPf5PsVWhVv3LjxR8KneDGSA4lEIpHYlYZeXhHPr9D81XfffYcLFN9iYzTOjzUEQRCE5kHv/lbw8jdTkeyhVqshJCTEwNra+lPscSqBzEcikUikiikVvRs9HL28Ip5fqYMWe/bsUVpbW08DgEwJ3CyJRCKR/l2Z6Nno3ZXx+kqfwgsJCcFl7KnCVlOxb5pEIpFI5Qs9eip6dmV9vtKJAR9FUlJSlPPnz+9uaGh4QazVdRKJRCKVKzV6M3o0enVFp4+YEsPL6tixYzMAuCuBHwSJRCKR/qe76M0s3l7lU3V79+7VS0xMdAEAZVVjEARBENxRJiYmvoseXeUIVZlK2rdvn4WlpeVsAHgogexIIpFIpFeVYmlpOXffvn2W1TKVdODAAWw6jWUy8iVw8yQSiUQqX1hq6JcDBw7YaTQx7Nmzx9rGxuZHACiWwE2TSCQS6d9VYmNjs27Pnj21uCcGfBQ5cOBATRsbm+UAkCuBmyWRSCRSxZRrY2Oz8sCBA9ZcD7jt27cPezavFqqcin2TJBKJRKqc0LvX7du3ryaXxPDbb78pLC0tv+Lc6pNEIpFI1atCS0vLr3/77Tc95u2qhw4d6p2ZmTlZQ816CIIgiOpBPzMzc+KhQ4f6vOkLX7vPNT8/X75w4cL2QUFBi4WGEpqiSGjGk9q+ffvTCoXiJgA8ErbCYsG+Jzt37iyqU0eTQyAIgtA8KSkpMGzYMH2hXacdAGBzntolJSVNzp4920n4s1pCMx9NYBcUFLSodu3aGd98880ZIyMjdXlf9NoObvPmzau9cOHCnwGgj4a6t2EZ2D/feeedyJEjR14EgEvz589/olTSeTmCIN4uVCoVzJ8/H5NFq61bt7a6f/9+RwBoAwBWGrgcmv7v33zzzfgFCxY8Ku8LXpsY7OzsZqSlpS3VQObCDHXK19d37ZAhQ/60srJ62LZt23KzFkEQxNtGdHS0/OnTp/X27NnTNigoaBIAeGig93ORra3t3NTU1JXl/m15Cw+ffPKJs0wm432qOQ8Azjdt2nT0pEmTDAsLC2WVPXRBIpFIb4vQI9ErmzZt6oveKXgoN09Gj0evL+/a//iD2NjYGq6urjiFpOI4iOeOjo7Lpk2b1jA5OZkSAolEIlVQ6Jnoneih6KUcfVmFXo+e//drvvKbO3fuyFxdXftzroGUaWlpOTMqKspC7B8wiUQiaavQQ9FLOTdKe4iej97/8rVembe6du2adWxs7EhhZZwVXDeIq1279tgTJ06sff/997M4xCQIgngrQQ9FL0VPRW8VPJYVO/R89P6X//CVxWczM7MPcnJyggHAnMMFbzg5OX26cePGiA4dOpS/wk0QBEFUijNnzsjGjBnjkZCQgMVMm3II+dzU1PTD7OzssLI/+PtK9yhOSSHb1tZ2ISUFgiAIvqCnoreix6LXcghpLnj/X/yVGMaOHdskLy+vH4eL5FpaWv7f4cOH91FSIAiC4A96K3oseq1Q2JQJ9H7MAWW/f5EY4uPj4dKlS6PUarUZY/xCR0fHzX/88cdPrq6uBayDJQiCIMoHPRa9Fj0XvZclFno/5gDMBVCWGLB6amxsbFsAUDCO9V6vXr0C33///aeMcQiCIIg3gF6LnoveyxhKgTlAqKT911TSuwDQkDFwadOmTbd8/vnncYxxCIIgiAqCnoveK2w/ZaGhkAsAj14rEhIS8GmhPmPQ615eXj/WrVu3hDEOQRAEUUHQc9F70YMZQ9XHXIA5QRYREWHt4eERAAAfMwTE9YSZOTk5601MTKjuEUEQRDWSm5srNzU1nQAAKwDAkCHUjoiIiGlYdtsSAJwYx3Xz+++/P2NoaCh6Uih9tSjgy1VhX/0LmSYKxhK6xkuvJ3rBEC/z4oUhFR9B70UPnj17dgIAtGAIhbnAUu/y5cu42NCIIRD+gKKcnZ3vKhSsa9dV4/79+8q7d+9a37x5s/6ECRPqCie36wl9JGoLPR9SACBN+PXBp59+mvLxxx+nWVhYPGnRogVtqyVeIScnR37p0iW7efPmNT516pQblkMWplvFeZETUqFU6B9z2cLC4lJISMjNRo0a3atbt65KzEGh96IHA8A5YZ2gqhmrkZATYIhwtLqqtTaedejQYUJCQkK11w7ZtGlT7cWLF/fr2rXrNwAQIjT4qVDxKAC4BQC7HBwcpi1evNhj8eLFNbAmutj1UEjia8eOHbLJkyf3AIADmCN4VrQk6ZSK8UNxr169Ri9dutRM7NctenCHDh0mMhbaUws5AeYz/nBu+vv7t6rOH0B0dLRpjx49fCwsLI4JBf+KGMafJySJ3729vT0DAwPlYv8Dk8TTzp079aytrbGV7W3GD0ykt0P4GnmsUCh++eqrr/TFfv36+/vjRqJExnuar8c4HwWmpqb37ezsrrDEqAiZmZmypKQkK19f3/YJCQlfFxQUuAqtSVkn+YyEqTSHY8eOeZw6depwfn7+Gm9v74vNmzdnPlFIaA85OTmK06dPD0xPT/9SaLlIEG8C/cempKRk1IkTJ5LS0tKW2draFok1GDs7u1hTU9OHOTk5jRnCvMgJ4SzZxcPDY4ums2B2drbcx8fHHQC2VNOj/aPatWsvPn78eD2xPwGQqk/Tpk3DN9MpCXwKJWmn7vTq1avrgwcPRO054+HhsYPxPjAnQCxLEA8Pj+80faNjxozpJHQw4tk86E3Ks7e33zp48GCnx48fi25aJM0LS4YxTkuS3m7hmsPqkydPirre4OHh8QPjfcTKhe2qLKQwfn+5FBUV4WKK8ejRo0du3rx5m7ArRE8T13oNRklJSUN/++23HZ07d+6QmppandcmxAEbsCvFHgShteCONRcAqCnyOB4yfr8lJgYLhgCYXVIZB1EuSUlJRk2aNJm4efPmH0pKSuqLtI8ck0HL69evbxk4cGDXGzdu0FZF3aa12AMgtB5cr7QSeQwpgjdXFQtMDKaMg8hk/P5y+e9//9sbAGbjwo4m4leShtHR0fN9fX1bPnzImowJCWMr9gAIrceC8eQxDzIYv99UXk6znsrCtTYSHu0eO3Zs661bty6T0BsVf0bu586dW5iYmMhabJCQLgliD4DQelI5Nc9hgdWT5axJgSuZmZkwefJk540bN64sKSlpIPZ4/gZOI/Xo06fPosjISNa+FYQ0iRZ7AITWg2cItL7tgKQSw507d8w3b948RpjrlUYRkr+Rm5s7aNmyZR+KPQ5CI5wVDjwSRFXAXZNXKTFwZsyYMc4AMFziO0MMT5065RsYGGhfUkIVxnWJLVu2RBgYGIQIp1kJolLo6eldnTlz5nZ3d3ed6F7Jst9V7eHh8QGPvbfR0dH6BgYGByWwF7kiwk+VX0VFRRmIvfeexFdLlixpJRQio3IYpMooo1u3bn3Ffv2W/u8cwwesr1/JPDF88803noWFhR+IPY4KgmU0hgYGBrJUpSUkSJcuXWKaNGnyH+EEND05EG8CjTROqVTOGzNmzB9iD4YXkkgMmzdv1ouOjh4tgW1elcF527Zt2pLIiArSrl07dXBw8PGgoCA/uVz+vUwme0JPD6TXqEAul++eNm3amPDw8PVDhw7VmbllSZzmffDgwbtZWVnvcVxwxsWfFDs7u0dOTk4JhYWFxufOnXMUDp7gYTkTDtdQlJaWDrt8+fKP7733XimHeIREaN68OSpx9OjRc+fPn+9/6tSppsLJ+3pSec8QooEfEp4I/Riu7N+/XycLbYr+Ir9//z6Eh4e7cqpmibVKLgwePHhj06ZNw1u1anVvwIABhc+fP5ctW7YMt5jar1+/vsfjx48/FRpfs12suNh11qxZdcLCwujUm44yf/58fE1dE0QQbwWiJ4akpCTT48ePY4esGhzC/TJw4MDVP/74Y2Lt2rX/6qhkbm5eumjRImxecblnz57xx48fvzRv3ry5ANCZsSOXAQB4AcCvHMZOEAQhCURPDEIbzvcZp5Fwbu+39PT0WWZmZvn6+vqv/cL27dsXtW3b9riJicndefPmbc7NzW3HcF15dnZ235SUlG116tShhUqCIHQCKSw+mwm9mVmIGzhw4DJzc/N/TQplKBSK0s8++yyxRYsW3wJAPsN1ZefPn6+zfv161npTBEEQkkEKicGQsfR3/uDBg3evW7fumlJZuXNxixYtCgWAowzXBmHrKkuFWoIgCEkhamJQq9UwcOBATArGDGEymjVrdql27dqFlf1GT09PXIc4xnBtEBKD2GV2CYIguCH6E0NmZibrNFKm0Li90sjl8tJevXpdZ6yPQ4mBIAidQuzEIONgqtlV7SInl8th9uzZzwDgMcP19Tn0tCAIgpAMYieGUg61y41YWumlp6cbM65x4D53nSiaRRAEARJIDMChPyk+cTSuyjcWFxfLPvroIyfGMxT5mupiRxAEIQaiJgaZTAYzZsxAU630wvFLWB4+fNgpPj6+Kucg8HvaMlwbhKeFLMYYBEEQkkH0xDBgwIA8RmM1u3DhwsAbN244YMnZilJQUACffPJJM6ySynBtoMRAEISuIYWppByhT2pVwU/9XT/88MOpJ06cePPpNoF58+bZ7dy58wfWMwjW1tbpTk5OlBgIgtAZpJAYcEfQFcYYmBx8R44cOfb333//V6PPz8+XffHFF/bh4eH+WCGD8brqFi1aRA4fPlxVga8lCILQCkRPDG5ublkTJkyIYSxNgZinpaUt8fPzW92hQ4emGRkZ8pKSEhm23xR+RcnHjBnTfunSpduio6N9OWwzVcvlcp1pzkEQBAFSKKJnbm6url+/fhRW4AaAJozhLFNSUkampKT0tba2jgaA80JzbtyS6o55CABaClVRmVEqldePHTvG+rRDSJSHDx/qJSYm1hB2vlkKW6N59QwhtBNcyCwCADz/lGljY5Ph7OxcJPageCN6YhDA08d3AMCJ0xsP38zdBGmS3zUcnxCJpUuXmkVERAz8448/ugofWByEBCH6UzYhKmVnr+5hxYXmzZufHjZs2O5x48Yl29nZiT02rrC0tlNj42nW5tW3b9+GVq1aTQAAlQTa9VVUqQEBAR3EbvxN4i9/f38bhULxi7D+JfbrjCRtYZI46OHh0Vrs122Z0JNZ29FK4tOPg4MD9toNksvl58UeSwVR1atXb1OXLl1ixR4IwY+cnBw8V9Po//7v/34rKSnBNSgbscdESB5cp+wdERFxxNPTs3VqKssGS+kgicSArF69WjVq1KjvOZTIqA7ip02btsfFxUUn+72+rcTExJitWrVqfElJSRspvTcIyYPT35YRERHf/PLLLzxaFIuOpF78U6ZMOQ0AoWKP4w2oWrduHTxgwICrYg+E4Mt//vOf1gDgI/QIIYjKgMnBc+fOnR/FxcVVrjGMBJFUYnjvvffSFy9e/CN2ZBPmuqRGqUKhOOfu7h7g6OhIZxd0jIiICOzfbSv2OAitxez69esdnjx5UuWinlJBUolBT0+vtG3bthH29vaLsPCp2OMphysjRoyYvnbtWiqap5u0FnsAhNbTmLFasySQVGJAunbtqg4KCgo2NzdfKexSkgr3fHx8lqxateqa2AMhNEYLsQdAaD0NGKs1SwI5Y/cy0MQPAVtuHjp06CdLS8tADieieZDer1+/ZatXrw6xsLCQUrIi+ML6XiAIrBRdIvIYWD05T85YGRQXXDRyqqNjx45P9+7du8De3v477OusiWtUAFznuNOvX78vvL2915mZmencCUfiFS6IPQBC68E2w09FHoMd40HhLLlwtJsFjS3WdenSJf2XX3753tra+msAeKSp67wGPCBywcfHZ+bWrVu3TJkyRV3N1yeqn0tiD4DQepIkUIaf1ZOfsT4x8BjEv+Ll5ZWzf//+jRYWFhMNDAyuVMO6Az4lFCoUiuOffPLJmJUrV/5hZmZG00dvAZs2bToGADfEHgehtTyZMmXK0datW4u9OYXVk188MTDt/snIyKh348YNjdZc6tChQ2FmZua+lStXdu/Ro8ci4c2rCbPGOeZId3f3aRMmTOi/ZcuWaxYWFsUauA4hQVq3bn2ladOm30tgKoDQPtQ2NjbbOnbsuMfExES02QX0YvRkxjAvcsIKxlohl/39/RtVVx2QgoICua+vL/ZR+EEoZMWj3gkuFl2vV6/eZ0uXLm2ckJAgF7veCUkcRUVF1WzSpMl3Qmc+sevwkLRDxUql8tju3bvri/36RS9GT2a8H8wJ4MsY5PGXX345VK1WV9vNP336FM6ePWvm6uraQk9Pb7qenl6oTCZ7Lhi8+g0FpMr+Hp8EMvT09Dbr6ekNDwgIaH7lyhWl2P+wJPF1/fp1K1NT00+FUvAlrAXJSDorfF08lcvlyzZv3txY7NctejB6MYfij74yNze3djExMaEMTWsw0I+HDx+e26NHD9G2ls6ZM8fqwoULPYSeC7aRkZF2KpXKROi9gP+ABU5OTs/r1q2bBgB3ASBKoVCcPXbsGNU7Iv7BrVu3YMKECfYA0DcvL69ddHS0vdCPQXJnf4hqBf2usEmTJql16tTBIpoHJ02adGHw4MGlYg/syJEjRj179lyK1YUYdiXluLm5dZNFREQ09/Dw+A0AmjGM6fThw4fH9OjR4xZDDK4sXbpUkZeXZy7s6cWng8zevXvntWnTRvR/QEK7yMjIkAUEBGAvBix1oBB7PISooH8879ev3+NWrVpJav3xyJEjjXv27LkRADoxhImPiIgYjImhroeHBx4k680Q7Lmbm9vIs2fP/m5oaEjGSxAEUY0UFBTI2rdv3ycmJmYrNsZkCHUoIiLCT25mZva4Xr160cKn6qpiHhMTMycuLs6MIQZBEARRBdB70YMZk0Ix5gLMCXJXV1fVxIkTYzkcIOswYcKEPowxCIIgiEoieG8HxjCPMBdgTihbSMPtTcmMQWV37tyZtGHDBipbTBAEUU2g56L3MpbBACEHXH7xf7jNKS8vT/bBBx8ECFvzWLY55RoZGc07cOCAsdhbt0gkEknXhV6Lnovey+jdJZgDMBdg3BdPDEZGRqX6+vq7OFQyNc7Pz59w6NChQfn5+Ro9DU0QBPE2gx4reO0E9F7WcJgDMBe8+F1Z5gkLC1MaGhqe5HTwI2HKlCmtxM6mJBKJpKtCj0Wv5eHZ6P2YA8piv3IhBweHwQBQxONCSqXyzOTJkx1ycnKovASJRCJxEnoqeit6LKcP8kXo/S9f45ULXrp0qQ4AHON0Mdz+etjPz69tdna2QuwfJolEImm70EvRU9FbBY/l4dXH0Ptfvs4rx/vr16//5KOPPgrGA2uM81UgnBD1DgwM/HHu3LndOcQjCIJ4q0EvRU9Fb+V0Cv85AvET2gAAG39JREFUej56/8t/+EpisLa2Vn3wwQf79fX1I4VMwgoO3H39+vVr3333XZ8NGzYYl5SUsG6pIgiCeGtAz0TvRA9FL0VP5ZQUcNNRJHo+ev+rf1PO48qQIUM8hQNvPB5TypQNAFtXrVrV5dy5c7SdlUQikd4g9Er0TPROwUN5evIj9PryrlvuYEJCQhRmZmZrOQ+iTHcdHByWfv75525JSUl6Yv/gSSQSSWpCb0SPRK8UqkFz92L0ePT68q7/4jBDeYSEhDQbMGDAHgBw5vDI8ndw51OSs7PzSTMzsx2jRo26OG7cuAKZTKbW09PjMYVFEAShNRQXF6MXy3/55RfDLVu2tMrOzv44Li4OnxSw3Lu+Bi4Zt3///iH9+/ePL+8vX5sYHj58KPP29u4eHx+/VhicpigVpq1OODk5haxbt+6h0D0rTzhwVyj0UyAIgtAF5EKfGCPhYJrhxIkT6yYkJPTHNvcAUJtDeYt/I6lZs2aTjh07drRu3brlJoDXJgYkJibGaMyYMRNjY2MXMDTyqQxq4Wh3ptB3F399xlj5lSAIQkroCX1iLAHASvjVpJqaQOW4urrO27hx4zo3N7fXV7p401xXXFycRZ06dbZraL2BRCKRSNUk9HL09Df5/hszVPPmzbNatWo1HRs4CGsDBEEQhHaB3n0IvRw9/Y1fXZEV8mfPnkGfPn2aYn9TXiUzSCQSiVQtQs8+iB6OXl4Rz6/w9qnk5GRZ7969cYfSaQncKIlEIpEqptPo3ejhFfX7Su2tzcnJkfXp06chAIQLO4fEvmESiUQilS/06HD0bPTuynh9pQ9e5Ofng5+fX0NXV9f1Qk0lsW+eRCKRSK/qOXo0ejV6dmV9vson82JiYmydnJy+ojUHEolEkpSK0JvRo6vq71XeN9uwYcNHNWrUCAKA2KrGIAiCILgTW6NGjU3o0VWOUJVs8vDhQ0W/fv3eA4BgCWRHEolEIr2q/f369XNFr66Kx1dljUHeq1cvrOERQdNIJBKJJElhGe3IXr16dUXP1mhiyM3Nlfft27czANzDMuESuHkSiUQilS/06Ad9+/btmpubW6knh8pMHyl79+7dS1MlYEkkEomkEd3v3bt334cPH+pzTQzPnj3DJ4WuwkKzWgI3SiKRSKSKCT37at++fbs/e/asQk8Ob/wClUoFffv2dcH63TR9RCKRSFopTA7xffv2fQ89nTkx+Pr6NgCAaAncGIlEIpHYdN7X17fhm3xf79+2ssbExFjHxMTMAYD3qrwfthI7ZwHgDgCkAkCW0IsBlT19+vRiS0vLahgCQRCE5sjMzIRVq1ah75oJfRhQFgBgBwAOGm7Qg7SIiYmZGxMT87Wbm1v6677o3zq4Kb29vcfGx8d/KwxeU+DgjgPA0UOHDl02MDB4LtT4yC/r4Na+fXu1kZGRBodAEAShebA8xdmzZ1/u4IYyLCwsNO/duzd+AO8BALieW1ODw8hs1qzZV8eOHdtQt25dVXlf8NrEUL9+/U7Jycn7NDBAvGBG/fr1z9apU2eLq6vrkYCAAEwEan19/fIHQxAEoeMUFRXh04J82rRphrGxsb1SUlJGPXjwoJ3Q5Y33k0RGvXr1Bj548OB0uX9b3vzSgQMHTM3MzA5pYH4LnwCOOzg4DD9x4oRlZQ9dkEgk0tsi9EgHB4cRwoxKPm8/Ro9Hry/v2uUOaMiQIZ/g3D7ngSQBwIyVK1c2ioqKEv2HTiKRSFIXeiV6Jnqn4KE8PTkbvb68677yG5z/WrBggbO+vv45jhdX6enpnZ06dWrLjIwMveLiYtF/2CQSiaQtQs9E70QPRS8Vyl1w8Wf0evT8v5fmfuU3ly5dwoWQ+bjgy+nCOQCwa+LEiY3F/uGSSCSStgu9FD1V8FYeHo1ePx+9/+XrvHLRgQMH4napy5wumAcAq/z8/OpnZ2dXqnsQiUQikf4p9FL0VPRWwWN5ePUV9P6Xr/PKRU1NTacBQDGHC5UolcptkyZNqpGTkyP6D5NEIpF0Reip6K3osZyqURSj9798jb8a9Zw4ccKsuLjYDwAUjNug8Oh1hJ+f3+w1a9Y8MzExYQxHEARBlIGeit6KHiu0P1AzhlSg92MO+OtPyjJEz549BwkHy1izz+UJEyZ45OXlVboGOIlEIpEqJvRY9FpO0/8FmAPKYr94Yli/fr3i9OnTAwBAnzHzZIwcOXLVsmXLooyMjFizGEEQBPEa0GPRa9Fz0XsZw+ljDsBcgL95kRjS09Ob5OTkvMt6us7CwiKic+fOO83Nzcs9Zk0QBEHwA70WPRe9lzGUDHMA5gIoSwxCkbx6jIHzHRwcfhg7dmweYxyCIAiigqDnovcKp6NZqFdWMFUeGxtrtG7dupYcCuUFBwYGnmeMQRAEQVQSwXuDGcNYYi7AnCDPzs6ulZyc7P7S00NVeOjm5rbWxcWlkHFgBEEQRCVB70UPBoAUhjByzAWYE7AueA0AaMA4rthvv/32vqGhIWMYNlJSUmTr1683FZ5+rIRfawh7fZ++1Ofhqbe3d0GHDh1EHS8hfXbv3q13/fr1+kKt/JoctnMT2g3u4MHWAHeNjY3vzpkzRxJT5+i96ME9e/bE9st1GEJhLqihN2PGDDTQugyBioVe0I8YYjCxdetWy6CgoI7Pnz//8MKFC474cwIAY6HWuYGwz7esxwP++mzr1q2xDRo0+MPV1TV8+fLlJWKNnZAmt27d0vfz8+tz7dq1UY8fP35H+KBhxPhkTWg/ZWUkspRK5ZOjR4/unzhx4ubBgwc/E3tgggfj1tXuDB9g6go5AaYx7n998MUXX/RUq9XVtn/36dOnelFRUfXd3NyGK5XKgwqF4qmQoNSVGDd+bbFMJruvVCp/ViqVfcLDw2vevXtX9P3JJPGUnJws69ixYyM9Pb1fsUQ+p5IDJN2VSqFQnDI1NfW6fv26qGe30IO/+OKLPgCQzHhPmBNgPWOQP/39/WtX180HBQXV9PX1HSfUKOdxIK9M+Ei4ycPDo2dCQkK5NcpJuq8lS5ZgkbLDlfyQQSI96NatW1uxX7/+/v44jXSR8V4wJ7x4E1Q5iLOz8/74+HiNF8mLiIhQ9uvXz9vc3Hy/sF6giX9cnFK617p1642TJk1qKvY/Mql6FRcXZ9KsWbOFHIuTkd4eqW1sbIJ37txZS8zXcHx8vNzZ2Zm1yRrmBIhmCeLh4bFG0zd75syZmiYmJvOE/tDV8UmuWKFQ3B41atSQq1evGhcVFYluWiTNy8zMrKvwGhPbZEjaqVwjI6M5p0+fVor5Ovbw8AhkvI9oXEizYFzwSGX8/n/lxIkTDfv3778wNzf3P8KuEN69T8tDUVJS4rBly5ZV77777vQ1a9aw/owILSA7O7uLhpuwE7qNcX5+ftvi4mKxX0OsnmxRtl2VBY3sRkpNTYXZs2c7R0VFzU9PT+8HAHqauM4bsAOAuf7+/rZKpXLe5MmTs0QYA1F9uIk9AELrsRc+bKeJOAbWxFBDj/GJoVRTP4CEhAT77du34zFvL5GSQhk18vLyxs+ZMwdUKtWL5KBUKkUcDqFBKDEQrNhzmIVhJVXw5qrOrljIhX3+LHA/4BEeHm7Zr18/XATsJnJSKMMoLy/PZ+bMmRNv3rxpLPZgCI3BWmuGIIqETSxiksv4/QaSO6wTFhZm7OvrO+n58+eDxR7L38Apt6nLli3rLfZACI0RI/YACK0nSaiwoNVIKjHExcUpRowY8WFSUtI04fSy1LDbtm3b/02ePLmJ2AMhNMKfwiM4QVQFfO0kCtvptRpJJYZjx441ePTo0SQAqCX2WF5HSUlJg/Pnz89JTEw0FXssBF86dep0BACuiz0OQmt53KxZs0PW1taZYg+EFUklBn9//74A4C72ON6A4vz58x+MGzeu471798QeC8GRHTt23OjVq9dPQqFFgqgM6iZNmuwNCgr6w8XFReu7V0omMUybNs2qoKBgOgBow5afehEREcPu3bsn9n5lgiN169Yt9PT03C6Xy/cKi4gEURFwsfmyo6Pjt23btn0u9mB4IIUdP5CUlCSLioqaqVar3xF7LBUEKxcO6dq1629FRUW/iz0Ygh9z5sx5+uzZswknTpz489y5c7jW5chh5x6hm+CTwX0nJ6ftjo6Oyw8ePKj1awtlSCIxbNu2rdaFCxc8NVDrXiUcwNMHABvOp6Zx2yoevKPEoGMsWbKkNC0tLWj9+vWXdu/e3TkuLq6p0I/BWkpP2YQolJb1YzAxMbk9Z86cs927d49o27atTm11lkRiAIAWAMDraaFUqP8U0rt378ufffbZoydPniiHDh2KzVZcAWC4cAiFmeLi4u6fffaZgvo56B62trbF33zzzcVBgwZdevz4sbnQ9Mm4mkqyENKltKwfg76+/rMOHToUiz0gTcFSbEnt4eHxAUvBp/DwcD25XP618OmetYjVTTs7u5lhYWE1VCqVrKSk5K/rqFQqlGzEiBHWTZs2xSJTjzkU5Cv28vLyFLv4G4lEIpUJPZnV20R/LC4tLbVRq9WtODy93Js5c6ZfYGDgKi8vr2d6enqlcvn/vz09PT1U6datW9ODg4M/a9OmzXyhkiYLeIGejDEIgiAkheiJQahmyXpgDOf3li9ZsiSib9++b9wq1qxZs5xNmzZtadq0aTDjdWVXrlxx2759uz5jHIIgCMkghcRgzHigTV2rVq3doaGhOwwNDSu8fxiTQ6tWrfwB4DbDtSE9Pd0iISHBkiUGQRCElBA1MeB8WEhIiClj6e9MPz+/Y97e3ukyWeXWBTdt2oTby3YwXBuEBvGUGAiC0BlETwwrVqywZtymiqdU71R1CHgwhbE+jqEEyuwSBEFwQ+ypJPyIX4cxRpUTAy5I79q16z4APGG4Pj0xEAShU4idGIBDCYwSYV9xlbCxsSlhLH8gk9B5EIIgCGbETgw8OsDh+kSDqnyjWq2G5cuX48J3bYbrY1J6xvD9BEEQkkLsxAAWFhZpjHP8Vrm5uY2Liir/oV+tVssOHTr0HuNTSz5V4yQIQpcQNTHgAbT9+/dnC7VHqorVDz/80OnUqVNmlf3GiIgILHXQn+HaSAElBoIgdAnRnxg4fOLGT/tDAgMDO2PJi4p+08GDB+UjR44cAwBtGa4NQmLQ+lZ+BEEQZUghMWQxbDcto05wcPA3Pj4+lm9KDrhFNj8/X37y5EnP1NTUTxmLopW6u7snTJgwgbX5NkEQhGQQPTFYWlqmNm7c+Kywu4gF9x07dhwdNmxYn9DQULPXrTkcP37cxtjYeMqKFSs2AYAT4zXV5ubmwXXq1KE+wQRB6Ayib7Ns0aJFkY+PT+zXX3+dzrg7CHEPDg7+KTg4eM+sWbNOm5iY3MLiekKjlUZYbjswMLA7Tj0JB9OYUCgUz3x9fSNZ4xAEQUgJ0RODQCwAPOSQGEA4MDfphx9+GAYAT4WtpHiy2ko4oWzJ60lJLpefGTlyJK0v6CjBwcEmq1evbiGsQ7UUXlu8m0kR2gXODmQAwBUAuNipU6eohQsX6tzmE0kkhnr16t2xsLCIzMrKcuVk2kohyfBINK+jwMXFhbXOEiFB4uPjDdq0adMxLy9vnlqtbi+8JqlBD/EygzBJhIeH3/72228Xb9iw4aCPj4/OJAjR1xiQ0aNHl7Zt23a98AlfW4hcu3btabEHQfDl3LlzRgMHDhydk5OzWa1WdxKeECgpEH8HXxPy0tJSx5KSklXjx4//dvfu3eZiD4oXkkgMyIIFC64bGBhoyyfwp76+vjuaNGnCemqbkBBxcXEyX19fr5s3b34JAHXFHg+hNVioVKoxU6ZMGbtz506d+BAhmcTQtm3b0tDQ0LX4/hR7LG8AdyKd9PDw2Gdpaamz/V7fRs6fP9/4xo0bn3PsP068Peg/efJkSmRkpHdubq7WJwfJJAakYcOGSR07dtwIANlij+VfSO/cufPq0aNH68x8IvE/8GkBADrR1BFRRezXrFnz4fnz5ytdhUFqSCoxvPPOO4WDBg3C6aQDHM41aAKViYnJytmzZ58ReyCERmgttfcEoVXgBwpHXSjDL7k3wbhx41J9fX0/VygU5xiL6/Gm0Nrael1oaOhPnTp1oikk3aSN2AMgtJ7GwtZ4rUbO4ZO5PqexvMDU1BQ2btyYOmLEiKkAcI1nbAaK7e3tQ3bt2rW8ffv2NIWku7A2jSIIS6F5l5iwenIJJgbWOj/WjN9fLgEBAdd8fHy+AoCrEnhyCGvXrt1CLy+v+yKPg9AsCWIPgNB6UiWwRsrqybl6Qsnrqu6/xTk1O8ZBlEuNGjVUq1atOlpaWvpw27Ztq0tKSt4X4dRpvrm5+e4DBw7Md3JyulvN1yaqnwsA0E7sQRBazS0JlOG3Y9xA8VzO2AsBNLnfG5PD5s2bY0aNGoW1jXZyGGtlSLW3t59/4MCB6Z6ennft7DSS/wgJ4enpeUoCn/YI7aWwefPml2xsbDJEHgerJ79IDKzZTZNlJ14QEBCQumLFis87duw4vxrWHbAsa0Tt2rVn/vzzzwGenp7UtvMtYdGiRaclvCOOkD5Xhg0btsvZ2Tlf5HGwevKLnPCrMIdfJZmamp5es2aNKfY50LTu3btnEB4e3sTAwGAVADwW3sBVHvvfVCyXy28JJbkbXrt2TV4d90SSjrKzs2UzZsx4X6FQYIE0NcfXFkn3lefp6TkoJSVFVN9AL0ZPZrwXzAnwBWOQu/7+/l7VefPnzp2Tde/e3dnCwmKVMC+MCz7FVRh7kdAkKMLd3X3h1KlTLcU2J5L48vf3b6dQKMLxzS4BwyFJW+ghVz09PceK/boVXrt4SPMu4z19gYvPiYyPHbVOnTrVMjEx8ZSjo6OaMVaFwPIZR44cidu0adOM5ORkBwB4b/Pmza63bt3CBWp7YcuYRTmL1UVCx7hHAHBTLpfHLFiwAM9LXBsxYsQTe3v70uoYPyFtFi9eHJWbm+uzcuVKbP3qDQBNdOHQEsGVPMGAT/fs2XPjhg0bLok9oMTERDl6MXoyayhZQEBAu2nTph1h2JmEbD98+PD0Hj16pDMOqMpcuXJFPzMz01ZICIYDBgwwycrKKiu9jQkhZebMmZn9+/f/f+2dXUxbZRjHnxbcIJSJtXMtbiHbIGiLyXESoxIZu4Btst3NC5RhAvtICFtMmDYxmQQJMZubOqLcKDPC3SAzyzRZMC69IRoDaxegyBgxGCjdB7iN8pEZwPyXw8KnUM/px+D/S/4XwHL6lozf0/Oe933eMXWJ7rDBYLibnZ3N+WSygEAgIG1tbQlY4dHf37+xsLAQH0C28DyGNQ8+PN45ceJEz759++5gtmL79u3DmzdvjvS45MqVK5a9e/diFuUdDZd5UFNTsydWUZRb6gPdNzRc7HWv15uam5t7NyYmMn83OAlORP5SI0NDCxcGGAyGRyFkObDRcufOnaPq8sObBQUFv7KHElGZjjaXTE5OChysw3LrDtSEWPU0ok6NhSGlvLx8/9GjR1sTEhKiol2E0Rh13T7IE4z6/4lTjSQqmZiYiIWD4WKNl0ItGDI6HI6RoqKiLlxbw8XwV3PI6XRu0TgoQgghQaK695DG/ncTqAWoCUaz2TyVnp6OM5d9Gsf23NWrVz8aGBhYr/E6hBBCVgicC/fq8NDZh1qAmvCoumRmZrpTUlK6td4qd3V1vVVYWJjT29sbPZNvhBCySoFr4Vy4V+OlplEDUAtk5rYjLy/vnt1u/0WHHZ+bXC7XMbfbvVXjdQghhCwDXAvn6rDbeRI1ALVAZs9H2Wy2C0ajUWufGCxJ2n3kyJGPr1+//sT3JCeEkGgFjoVr4Vyty6jhftSAma8N2C03Q2Ji4veBQKBI43jBtNVqrWhqavosKytLy0NtQggh82hpaYk7cODAB36/v1KPZdQmk6l+ZGTkvZmv5zzBdjqd32Hjl9YXwUD9fv+x4uLid/EGdLgeIYQQtSjArXCsTntrhlX3P2ZOYcjPz0fzsMs6rde23Lhx41NUNU4rEUKIduBSOBVu1emQNLj+sur+x8wpDElJScOKouDcg34dXhCVbCNudXbt2vV5U1PTNq5WIoSQ4IE74VC4VJ0+2qjT3UI/nA/3z/nu/O58brd7g6IotSLyj44dCHGtH3Nycnb39/evj3QHQoZhmCclcCbcCYfq7WW4Hs6f/5oLdskpivIgIyPjC4PBoHXD22zQemOPy+U6n5ub+3VZWdm20dHRWPT3IIQQMhe4EY6EK+FMuBMOVV2qC3A8XA/nL/jZ9KxVSbOx2WzFfr//KxGJ12sgs0BXwrqzZ89ettvtPehOmJaWxipBCFnT9PT0xPT29pq9Xm+a2vuoRJ020ptxq9VaNjg4eH6xHy5ZfQ4fPvxDVVVVttrC9SmdB4U3+mF5eXmBiPyWlZXlycnJaUtOTv69tLSUR2kSQtYUtbW1T/t8vlddLtcrLS0tioi8prZ5D0U3UExHXYDjl/oHS94xjI+PGyorK9NPnTqF5w05IW45jL0Ot00m08COHTtwGptffQDuU4/wfBjC1yaEkHCyTu1rlCwiOMjBeu3aNVsgEHhe/X4ol/hD+C6n01laUVHRHR8fv3gBWO7BR3V1tSMuLs4doWPzphiGYVZpwu5UuBxOX877K3oqnpqamq9+eo9EcWAYhmG0xweXr8T5K5q/On369M8icgbHvul9X0MIISTkwN1nVJcvz0qqx9TUlFy6dMlksVg+UV8g0pWPYRiGWVkewN1wOFy+EucHtdGisbHRbLFYqkTkfhS8WYZhGOa/cx/OhruDcX3Qu/BQdUSkXEQGo+BNMwzDMIsHji6Hs4P1fNCFAbciFy9eXJeamro/Li7OE6mn6wzDMMyimYKb4Wi4eqXTR5oKw+xUV1dnYE2sus8g0r8MhmGYtR642AU3a3G7psKAOJ1Ou4g0iMhYFPxSGIZh1mrg4AY4WavXNReGsbExw8mTJ81Wq/WQwWDo490DwzBMWPMQ7oWD4WI4WavXl2yJ8X84ePBgakdHx/sejwcb4lJC3EaDEELWMpB3n6IoP2VkZHzZ0NBwU78ra6ws8+N2uxPPnTuXm5iY+K3a5yjS1ZRhGGa15TYcC9fCuXp7XPfCMJP29vakqqqqN00m0zdGo3FInWLiCiaGYZjgA3c+hEvhVLgVjg2Vv3WdSlqKkpKS5MHBwbe9Xm9eX1/fC2pXwVB2ECSEkNUAOk/7UlJS/rDb7c02m62xrq5Oz0PUFiUshWGG5ubmpNbWVqW7u/vl+vr6F0XEISIviUhi2AZBCCHRzYiItItIZ1FRUVd6ero7MzPTk5eXdy9cAwhrYZhheHjY2NnZiWLwrMfj2XT8+HH0IU9TC8VWEXlGLRYbRCRBRGLCPkhCCAkNOK1yVO07hyLwt4j8iUKAQ9xqamoGFEW5JSJDDodjxGw2T4V7gP8CcBmG84kj70YAAAAASUVORK5CYII=;" parent="1" vertex="1">
          <mxGeometry x="362" y="254.25" width="51.5" height="51.5" as="geometry" />
        </mxCell>
        <mxCell id="bhsM0qureE1KK-jTyyGe-31" value="" style="shape=image;verticalLabelPosition=bottom;labelBackgroundColor=default;verticalAlign=top;aspect=fixed;imageAspect=0;image=data:image/png,iVBORw0KGgoAAAANSUhEUgAAAYYAAAGGCAYAAAB/gCblAAAS50lEQVR4nO3dCcxmV1kH8P90ZrrShXba0mJLF/ayFOgClK0UkCIBlACKEAFNjBJFExEVNWIEEyEiigsaQ0TUiFsMKCggS0spUKCVspWlQG1Lga7TdTrTMcc8g3PaUtrpe5f3/X6/5AaaJu893+33nf97z/KcBAAAAAAAAAAAAAAAAAAAAAAAAAAAAAAAAAAAAAAAAAAAAAAAAAAAAAAAAAAAAAAAAAAAAAAAAAAAAAAAAAAAAAAAAAAAAAAAAAAAAAAAAOZt3dQNGNH6JPdMsinJfkn2TrIhyR5TNwyYnZuSbE1yXZLNSb6T5Mok26Zu2BhWORj2TPLwJA9Jcr8kRyc5KMn+Sfaqf9/CYuPUDQVm5+YKgRuTXJ/kmgqHC5N8Ocn5Sc6rf79yViUYWge/b5IfSPKYJI+v68Dq+DfUtSo/LzC+7fUWsbWC44okH67r40kuSXJ1/fultuwdZRsGeliSRyR5QpLTKwwAxtQC4X11nZPkMzUctZSWNRh2T3JCkhdWIBxbcwYAU2rDTl9J8pEk70hy1jIGxDIFQ2vrPkkemOQVSZ5acwYbpm4YwK1sq6GmM5K8vuYkrqvhqNlblmBo8wSPTvLSJM+vgABYBtfW28Pb601iy9QN+n7WT92AO+HQJC9P8uokp1leCiyZ3WuF5ONqkcyXKixma87B0N4STk3yBzWXcPgSveEA7GxdLYw5ua6Lklw8130Rcw2GNnfw00nelOQ4ew2AFbGx9lQ9q0LhyzX3MCtzC4aWqg9O8qtJfqE2owGsmrbJ9pQkh9TQ0uVTN2hncwuG9nbw5iTPrp3JAKtqY/V5xyf5VJLLpm7QDnMZs28P6MSatT966sYAjOzrSV6c5GNzWLU0hzeGNmP/jCRvTHL/GYUVwFj2ryX5bVL6q1NPSs8hGB5fK48eJBSANWpdVX5+RJXTuHDqxkxlt6pz9K4k956wHQBzcmmSZyY5N8ktUzRgqjeGFkiPrInm4yZqA8Ac7Vsb4j6d5JtTNGCqYDgiye8kefJMhrMA5uTQGlr6aJ0FMaopOuW9ap/CT9i4BnC71tdinN2qEN+oZzyMHQxtCOlHkryuViMBcPvW15D7F5N8duwbj6nNuL+hTloD4I61YwXum+TsMecbxgyGA6pC6tPq9QiA729TVZU+Y6wzpsfqoNfXJrbnOFgH4C7ZUH3n6WN9mR8rGA6sMxU2jXQ/gFVyUPWhB41xs7G+vbfzFE4a6V7fz/babr61No8sxVF7wKjW1RfnDfUtfQ5VGU6uEyzfPPSNxvhh2wE776+zmqfSOv/vJPlGXZ+rLeffqpOUJi9aBcxGWzF5jyqJfXRtwj2y9l9tmjgkPl8nWV465E2GfmPYrRLuiIHv871sr6qF707ygTqQuxWoummi9gDLp038HpPkoUmeVGP995koII6sPvUPl3m0o6Xt+3Yashnrave7Msnrk5yQZL+pHwSwEvarIwLeUH3MFH3be5McNfWD2FXtbeElNVQz5oPbnOSdVaAPYCgPryKg14zcx11blSOWctl/qy/+VyM/sDZn8BrVWoGRtDnU30ry7ZH7urcu69HHxya5eMQHdX2Sl9akEcBYWjXUlyW5YcT+7uLqY5fOL474kC6pJbEqtQJTWF990CUj9ns/P/UPfVe12foPjvRwLk/yiiR7T/1DA2va3vWF+PKR+r73z2R/xZ12WK2zHfrBtBn6v6g6TABTu2eSt4y0WunSOrdhaTy3VgcN/WAuqHIbAHPR+qQvjdD/ba4aSgs3xHKn9mrzmCR7DvDZO7u2ToG7YuD7ANwVrU96bfVRQ2ob7x47xHDSEMHQZugfMMKu6jNrjA1gbtrG3o8MfI+NVWpo30V/8BDBcK8kBw/wuTu7Osk/DV0vBGAXXVJ91NUD3+fgIeYZhgqGocf929zCh2qCB2Bubqk+6oKB73PgsgTDpoFXCbUHfm5VRwWYq1aw87yBv8AeMMQIzRDBcMjAW7VvriPutg54D4C7a2vNhd484D0OWIY3ho31xrD7gj93Z+0hnzXg5wMsytDBsHud6rbQxT5DBMPQJa6vS3LRwPcAWISLqo7bkParvndhFh0M60coTXGxE9eAJbGl+qwh7T33N4bdatPFkGxoA5bJlQN//h6L7ssXHQzrRqhwesPAnw+wSNcN/PkbFr37eYhgGLra37aBPx9gkYbusxbe7y7l0XAADEcwANARDAB0BAMAHcEAQEcwANARDAB0BAMAHcEAQEcwANARDAB0BAMAHcEAQEcwANARDAB0BAMAHcEAQEcwANARDAB0BAMAHcEAQEcwANARDAB0BAMAHcEAQEcwANARDAB0BAMAHcEAQEcwANARDAB0BAMAHcEAQEcwANARDAB0BAMAHcEAQEcwANARDAB0BAMAHcEAQEcwANARDAB0BAMAHcEAQEcwANARDAB0BAMAHcEAQEcwANARDAB0BAMAHcEAQEcwANARDAB0BAMAHcEAQEcwANARDAB0BAMAHcEAQEcwANARDAB0BAMAHcEAQEcwANARDAB0BAMAHcEAQEcwANARDAB0BAMAHcEAQEcwANARDAB0BAMAHcEAQEcwANARDAB0BAMAHcEAQEcwANARDAB0BAMAHcEAQEcwANARDAB0BAMAHcEAQEcwANARDAB0BAMAHcEAQEcwANARDAB0BAMAHcEAQEcwANARDAB0BAMAHcEAQEcwANARDAB0BAMAHcEAQEcwANARDAB0BAMAHcEAQEcwANARDAB0BAMAHcEAQEcwANARDAB0BAMAHcEAQEcwANARDAB0BAMAHcEAQEcwANARDAB0BAMAHcEAQEcwANARDAB0BAMAHcEAQEcwANARDAB0BAMAHcEAQEcwANARDAB0BAMAHcEAQEcwANARDAB0BAMAHcEAQEcwANARDAB0BAMAHcEAQEcwANARDAB0BAMAHcEAQEcwANARDAB0BAMAHcEAQEcwANARDAB0BAMAHcEAQEcwANARDAB0BAMAnSGCYfsAn7mzdQN/PsAiDd1nLbzPXXQwtAbesuDPvLXdB/58gEUaus+6ZdHhsOhgaA3cuuDPvLV9Bv58gEXad+DPv3nRX8gXHQzbkty44M+8tcMNJwFLYl31WUO6ofrehVl0MLS3hWsW/Jm3dkiSew58D4BFaH3VpoHvsbneGhZm0cHQGnf1wBPQG5IcN+DnAyzKcdVnDWV79bkLHcIfYo7hW0muXfDn7mxjkicM+PkAi9CGkU4dePJ5c/W5s55jSDXyygE+d4eWvqcYTgJm7oAkj02yfsB7XFl97kINEQzfTnLVAJ+7Q0vhByR5xID3ALi7Wh91/4EXy1xVfe5CDREMlyW5YoDP3dmRSZ5u6SowU61vOr36qiFdUX3uQg0VDN8YeKNbG056bpKHDHgPgF310OqjhhxGuqX62qUYSmqz459KsmWAz97Z0Ul+ZuB7AOyK1jcdNfA9Wh97zgibihfmpJoU2T7wdV2SZygGCMxE64t+KMn1I/R/rY89Yeof+K5oy7O+MMKDaddnk5wsHICJ7VZfis8fqe/7fC3fXyp/NtLDaZvq3p3kgVP/wMCa1lYg/Xv1SWP0fX889Q+8K55SY19jPKA21vZvSQ6c+ocG1qTW97yr+qKxvhA/eeofelccmuTDIz2kHdeHasxNaW5gDBurzxm7r/tg9bFLZ48kvzHiW8P2qjD46SQvSbLX1A8AWGl7VV/zyZH7uXavV1cfu5ROS3LhyEm6vfZSvCXJMVM/AGAlHVt9zGUT9G9fXdZhpB32rknosSZjdr52FPRrEzSPrnLdQ1Y5BFbXhupDWl/yJzsVrhu7X2t96Z8OPSIyxoE3rRLqOyYeD7u8xuTOqSVeX6v6ItfUwUJLs0EEGFwLgT2T7FdhcFStejwxyROTHDRh29obyvOSnDHkTcYIhjYO9je1PXxqWysQvlWhcH2tIljo6UfAUltfC1jaiMf+FQ6bZjLi8A9JXjR0ZYmxjshsG9DeU2VoAbjr2k7nH0zyiaFvNGSBp51dUQdinzjiPQFWxc01X/r3Ywx9j1VG4oYaTjpvpPsBrJJzk/xtzYkObsxv79+poatT7DEAuNPaiMvvJfmPWpk0uDGDYXsV1jsiyaNGvC/AMnt7ktePcJTBd4093n9zVUNtS1gPG/neAMumnW3ziiEO47kjU0wEX53k4iSPr6VgANzW/yR5ZZKPj33jqVYIfa0O2Tm51goD8P/anOxrkvzjFPuspgqG9oN+sYaWTnXIDsB3tVIbr0vyl7UJd3RT7inYUstXD05yvHAA+L9QeGuS306yeapGTL3ZrIXD2TWcdJxzFIA17Nokf17HFVw1ZUOmDobUq9Kn6v+fNJN6JABjal+S/yjJG8ZegXR75hAMqYnoT1YonDSjdgEMrc21vinJ79ak8+Tm1AHflOSjSS5N8uAquDdWkT+Ase04dOfXKxiunbpBO8wpGFLJeV5tgms7pI8UDsAK2l5fhH85yb/UF+PZmFswpGblv1KH6tyjDsgw7wCsipuqSmp7U/hI9XmzMsdg2KGNtb0vyflJ7pfkwJm3F+CObKnRkFcl+f0kF03doO9l7h1te5CfS/Le2udwWJXRMLwELIv2RvD1Onrgl+qY4dEK4u2KZepg71EHcT8/yY/VPwPMWVuO/89J3lZzCrOZYL4jyxQMqfbuk+RBSX4qyTPqPFYb44C52FJny78/yVtqOHzzWGcpLMKyBcPO2tDSw5O8oI4MbUtc7zV1o4A167I6c+bsmlw+b44Ty3fGMgfDDm2e5PAKidOqYutD6oxpgCFtrjeCFgYfSPKZKpc9+LnMQ1qFYNjZPjU5fVCSx1Tl1uNruGljLXtdX28bu9XPv2rPALj7ttd1S13bqrO/uUpWfLqC4KN19ObVVcFhJayVTnFTkmOTHJ3kqKro2nZW71EF/NbKc5iTFtaPTLLn1A2ZqRurhtjkdXPWoO01adz2G1xZS+fbGTIX1h6rWZStgFXT3tZ+tr5lbXfd7tWezcuVo2cKfumYwn2SPNs80B3at57RfaZuCGuPYGBsbY7n6UmeaAjvDq2rZ3S6kjDAqmvzPZ+YwVDNslzn1DOD0XhjYGxPr5Vi3DnH1zMDWEkH1zK/qb+FL9t1Xq3iglF4Y2Asu1Wdq2OnbsgSOqaenb9XRuEXjbEcWatsFD+869rGzWdZocRYBANj2FDj5KdYibRL2jN7XD1DK5SAlXB41ZKZeqx+2a+z61nCoLwxMIanVfkL7p5H1bMEWGr7W4m00OvcqvMFg/HGwJDa79eLk9x/6oaskHb++Yv87TIkv1wMqa1Eek6SvaZuyAppz/KHrVBiSIKBobSaSE9NcpKVSAu1rp7p0+oZAyyN9o32rBmMya/qdZa3BobijYGhPCXJCVM3YoWdUG9kAEthLyuRRrnOqxMIYaG8MbBobQz8ZUkePHVD1oAH1rP2d8xC+YVi0dpKpOcl2Th1Q9aAjfWsj5y6IawWwcAi7Vbj3sdbiTSKdfWsn+pvGZirVlL7zBmMva+160zlzFkk3zJYpNOSnDh1I9agk2oVGMCs7J7kv2fw7XmtXp9JssfUvwSsBuPAy6X99zowyQOSnJrksbUyZb8Z1OlfV+3wOzWNFg7X1P9OaWu14/O1Ce8DSS5IcsUM2sad5I94eeyb5IlJfjzJM52ExpK4Nsm7krw9yYfqn5k5tVaWQyuz/GtJfqXeEgwZsCzaEONxSZ6QZM8kn0yyZepGwbLblOTvktw4g3Fsl+vuXDckeVsNhzJj3hjm7eAkr03ywvrmBctsQ82J7ZPk4xUUzJBgmK/d60CWn6s/JFgFG+qwoYuSnJ/klqkbxG0Jhvk6OskblTtgBbXCf/dO8p4kV03dGG7LBrf5eoFCdKywVjb8+VM3gtsnGOZpQxVHg1X2ozPYf8PtEAzz1MZgj5q6ETCwY5Lcd+pGcFuCYZ4eZhUSa0D7HX/o1I3gtgTDPB3ivw1rQPsdP3TqRnBbOp952qBcCWvAOgc6zZNgmKdrrO9mDbjFctV5EgzzdGGSbVM3Aga2rX7XmRnBME/nKRfAGnBDneHBzAiGebo8yX9O3QgY2LvrnAZmRjDMV6tCuXnqRsBA2jzaX0/dCG6fYJivT9QBJ7CK3pnknKkbwe1TRG++2vkLX6/Nbve2fJUV0c5l+FiS3zTxPF+CYd4uSfKNJCfXgT2w7C6okwjPmLohfG+CYf6+Vt+s2gEnh03dGLgbPpvkVVVue/vUjeF7Ewzz1/6Avlyv3+3AniPqzGdDSyyDHZvY/jXJK5OcafPm/OlclktbLPCkJD9ZbxD3qvNzd7eQgJlonf6WWoZ6aZIv1Aq7/0qyderGcecIhuW0V5Jj65S3Fg57evtjJrbVwolvJvlqXTZrAgAAAAAAAAAAAAAAAAAAAAAAAAAAAAAAAAAAAAAAAAAAAAAAAAAAAAAAAAAAAAAAAAAAAAAAwMT+F3fjOC/0ec7TAAAAAElFTkSuQmCC;" parent="1" vertex="1">
          <mxGeometry x="110.25" y="159.63" width="61" height="61" as="geometry" />
        </mxCell>
        <mxCell id="bhsM0qureE1KK-jTyyGe-33" value="" style="endArrow=none;dashed=1;html=1;dashPattern=1 3;strokeWidth=2;rounded=0;" parent="1" edge="1">
          <mxGeometry width="50" height="50" relative="1" as="geometry">
            <mxPoint x="560" y="525" as="sourcePoint" />
            <mxPoint x="560" y="35" as="targetPoint" />
          </mxGeometry>
        </mxCell>
        <mxCell id="bhsM0qureE1KK-jTyyGe-36" value="&lt;b&gt;Conector&lt;br&gt;BD&lt;/b&gt;" style="endArrow=classic;startArrow=classic;html=1;rounded=0;entryX=1;entryY=0.5;entryDx=0;entryDy=0;exitX=0;exitY=0.5;exitDx=0;exitDy=0;" parent="1" source="bhsM0qureE1KK-jTyyGe-7" target="bhsM0qureE1KK-jTyyGe-5" edge="1">
          <mxGeometry width="50" height="50" relative="1" as="geometry">
            <mxPoint x="517" y="215.5" as="sourcePoint" />
            <mxPoint x="450" y="145.5" as="targetPoint" />
          </mxGeometry>
        </mxCell>
        <mxCell id="bhsM0qureE1KK-jTyyGe-37" value="" style="shape=image;verticalLabelPosition=bottom;labelBackgroundColor=default;verticalAlign=top;aspect=fixed;imageAspect=0;image=data:image/png,iVBORw0KGgoAAAANSUhEUgAAAYYAAAGGCAYAAAB/gCblAAAgAElEQVR4nOydC1zO9/v/r/u+uzuXSlEOoyiHmhVhTkWT83EYwySn5nyYsa3v5rzvz8yQYdkIczYRM0QokeZQDolCDqlQis7ddfd/XL6f9mfLVO/33edz367n4/Gaoa7P+5P7fl335324LllpaSkQVQN/dpGRkYYAYAUANeLj42v6+fk5AUALAHAAAEsAsHjpV2MAkIk9boLQQtCo8gEgU9Az4de7AHA5MDAwoVmzZk8A4DkAPO3YsWO+TEZvtaoio8RQeRITExV79uypq1ar3b7++usOANAMABoKycBY7PERxFsIJo0kIVHEL1q06KxcLr80ZMiQB46OjiViD07boMRQCX788UeDP/74o+Pjx48/vHjxYksAaAAAtvQUQBCSAk3tEQDcb9WqVWytWrWCe/XqFTFlypR8sQemLVBieAP37t3Tu3HjRp3Bgwd3LSws/FSlUrkAgAEAyMUeG0EQb0QNAIVKpfKGgYHBT7/99lto06ZNHzZo0EAl9sCkDCWG1/D06VP51q1bG23dutX7/PnzQwEAp4wUYo+LIIgqg0niXOvWrXeNHDkydOTIkYlWVlY0zVQOlBjK4fvvv5cfP3582NGjRycBwHsAYCr2mAiC4EYuAFzr3r37T127dv119uzZlBz+DiYG0v+UmJioXLx4cQtDQ8ONwq6HUhKJpLN6bmhouHXx4sVuiYmJ+mL7j5RETwwCR48eNevbt+9olUqFTwlNaEGZIN4abimVynUHDx7c2L179yyxByMJxM5MUlBISIhtnTp1lgJAtgQ+xZBIpOpXbp06dVaEhITUE9uPpKC3+okhIyNDFh0d3eSTTz5Z+PTp074AYCj2mAiCEI1CKyuro1ZWVv5nzpyJq1Wr1ttrjmJnJrF0+fJluZOT0/sAcEkCn1ZIJJJ0dM3JyanT5cuXFWL7lFgSfQBi6OrVq7KWLVt2BoDzEngRkkgk6elyy5Ytu129elUutl+JobduKunRo0eydu3auSclJa0GAHc6m0AQRDngmYfL9vb2U6KioqJq1679VhnlW5cYWrRo4XL16tVtQqE7giCIf+Nmw4YNh//++++XnJ2dxR5LtfFWlXUICQlxSktL+46SAkEQFaTJ3bt3l61du/btyQpv0xPDsWPHLH18fJakpqaOBQD9ar782/FDJojqobrPGKns7Oy2bt68ea63t/eTar62KLwViSE5OVm/fv36UwFgEQAYafBSWJjrMQCkGxsbp7m7u8cJZYAzsPwSAORRkiCIKiET3rvY+8Qay9xfuHDBOS8vz1b4fS0AUGrw+oUAsPj3339f1rt370INXkcS6Ik9gOrg119/xUXm6RpMClg+I7ZOnToRvr6+0QAQZ2Nj82D69OlUg4UgNMSqVasUT548qQ8AzkFBQW1TUlI6AYAbNs3SwOWwovLkqVOnnundu/dJDcSXFmJvi9K0li1bZmFkZHRUQ1vacOfCwREjRgw5fPhwo7Nnz+qJfb8k0tsofO8dPnzYYcSIEYMA4IDw3uT+njcyMjq1bNkyG7HvV9MSfQCaVFBQkKGent63AFDA+QWSAwBhzs7O3XNycvQLCwtlYt8riUQqBXwv4nvS2dm5G75Hhfcqz/d+oZ6e3oqgoCBjse9Vk9LZXUmZmZmyI0eOdCouLv5IeAzkxQMHB4cl06dPH/X7778fNTExKdLX16d1A4KQAPhexPfk77//HorvUQcHh8XYyY3nJYqLiz88cuSIV2Zmps76p+iZSVOKj4/HRapdAFDC8dNCvImJyaAzZ85QiV4SSQuE71UTE5MBWOaC9xRyfHy8tdj3pynpZMZLSUmR9enTZzAADOR0VqPEzMzs2E8//fRJUlLS/vbt2xdxiEkQhIbB92pSUtKBn376aZSZmdkRACjmEBZ3SPXo06fPJ+g1HOJJD7Ezkyb04YcfOgLAbV6fEExMTI6tX7++kdj3RSKRqq7169fbm5iY8NyI8uDDDz90Efu+NCGde2IIDQ01uXjxIp5ZeIdTyAvLli37cvz48bc5xSMIQgTGjx+ftGzZsi8AIJpTSLuLFy9ODw0NNecUTzLoVGJQqVTyqKioHvfu3RvE6YxGwvfff/+f8ePHX+IQiyAIkRk/fvxlfE/jeqHwqZ8Fxb179/oPHz6879WrV3WqGKdOJYYVK1Y0nD9/Pj4t1OEQ7nmjRo1WtWnTJkxPT0/NIR5BECKD7+U2bdqcbNSo0UrhYCorNhkZGVMOHz7cmEMsyaBTJTGMjY2/zs/P/5rH0XhbW9vt27dvn9SlSxceLx6CICTEyZMnzYcPH746LS1tFIdwJUZGRt/n5eV9wSGWJNCJJ4bCwkJ8RHQuLCycyqleSmrdunUXU1IgCN2kS5cuz+vWrbsEAB5yCKcoLCwcP378eHf0Ip1A7NVvHlq4cCEW0drH6Rh8TqtWrSY/e/aMyluQSDosfI+3atXKDwCyOZ1tOLxw4UJbse+Lh7T+ieHOnTvKY8eOfQgAHhzK8eI/7gl/f/8D5ubmPPY7EwQhUfA97u/v/ztW5Rfe+yyg97Q7duzYkDt37lR3WX/uaH1iuHfvnv3p06exx4Ilh3CPhg4d+ouHhwePx0uCICSOh4dHytChQ3/G6WMO4WqgF/Xv399Rrdbu/SpanRguXryo5+XlNRcA2nB4Wig1MzPb2KlTp4M1a9bU7n9VgiAqRM2aNUs7dep02MzM7GcO21eR965du/afmJgY7X5qEHsui0Xt27fv8lLzG1ZdW716tZ3Y90Qikapfq1evxkY/lzl5SWH79u17iX1PLNLaJ4YNGzbUun79+lxOzXdyAWD5uHHj0jjEIghCyxg3bhy27FwmLESzon/9+vXZGzZsqMshlihoZWI4fPiw4cSJEz/NysrqxCFcsZ2d3fbw8PAQQ0ND3TnUQRBEhcH3fnh4+CHs7Sy06GUiKyur3cSJEycdPnzYmM8IqxetSwzYiGPfvn2tVSrVCDzTxiFk4vjx4zd4eHg85RCLIAgtxcPDI3P8+PEbAeAmh3CGKpXq43379rVHz+IQr1rRusRQUFBg8PPPP08CAB5H0NUuLi5BQ4cOvcghFkEQWs7QoUNjXVxcNnDYvoo0/Pnnn6d+/vnnhhxiVStalRgePXok69GjB/ZYGMRj7DKZLLply5Y/Nm/enM4sEAQB6AUtW7ZcJ5PJznAIh08KvUJDQ0c8evRIq7xW9NXvymjy5MlOABDLaedA6oABA7qLfU8kEkl6GjBgwAdCuQweXnN98uTJWtW3QWuyWHR0tElYWBgeZGvCIRwuLu2cM2dOFIdYBEHoGHPmzPkTALYDAI9ujY3CwsLGR0dHa03fBq1IDDiF1K9fP88bN24Mx0UdxnClhoaGMYsXL97g5ub2nNMQCYLQIdzc3LIXL1680dDQ8CKHg2/6N27cGNqvXz8vbZlS0opBHj16tNbjx49nA0A9DuHyvL29V/n7+18zNNS6NSGCIKoB9AZ/f/94b2/vFcI5J1ZqP378eM7Ro0ftOMTSOFqRGBYsWPAxAPA4swBGRkbH/fz89vGIRRCEbuPn53fQyMjoCKdwbRcsWODDKZZGkXRiKCoqgrlz576bnJw8mVOrzodWVlb/7d27dz6HWARB6Di9e/cusLKyWgoA9zmEkycnJ4+fO3dua/Q2KSPpxLBly5aa33333dyioiJ7DuFyXVxcVkZGRsZyiEUQxFtCZGTkFRcXF5xSymGNVVRU9A562pYtW2rzGZ1mkGxiePLkid7evXt7AUA37JDEGA4Xj85MnDhxb8OGDXWkxRJBENVBw4YNiyZOnBgMAKc5HHxDz+2yd+/evk+ePOHRbVIziL1f9nXy8vLCAlTnOO0jzurevXv/1NRUudj3RSKRtE+pqamy7t274wfVTE6eFOPl5dVA7Pt6nWT4H6kRFxen17Fjx++zsrKmcwhXWq9evdUPHjzgEYsgiLeY+vXrL0tOTp7FY7bFwsLil8jIyMnOzs6SW3CQ5FTSvHnzOmRlZY3gFC7Ox8dnDadYBEG8xfj4+PwEAFd5xMrKyho8b968Ljxi8UZyiWHfvn21IiMjpwKAFYdwuFi0buzYsUkcYhEE8ZYzduzYewCwFgB4HI41j4yMnLJv3z7J9W2QVGKIiYkxGDp06KhHjx714DC2Emtr6/379u3b3bBhQ+b66gRBEA0bNizet2/fb9bW1ngWirX4pvzRo0ddhw4d6hsTEyOp07aSSgw7d+50VqlUWA/JhEO4BwMHDlw3YMCAdJlM68qhEwQhQdBLBgwY8HTgwIFrOZ1twL4Nvjt37nTjEIsfYq9+l2nhwoWgUCg2CdvBmFf969atO//SpUsKse+LRCLpntBb6tat+xWnHUqlCoVi98KFC2Vi31eZJPHEkJGRIQ8NDR1YUlIyRKhhzkrUyZMnf3RzcyvhEIsgCOIV0FtOnjwZKJxtYN7aWVJS0jc0NHQ4eiGfEbIhiUGsW7fOITIycjanVp1pXbt2/c7W1pZadRIEoTFsbW0z0WuwtwuHcIaRkZEz1q1b15RDLGZETww3btww3rt370gAcOUQDheZQyZOnHjKzMyMR2s+giCIckGPmThxIj4x7OPUt8Fl7969n9y4ccOUQyw2xJzHKikpATs7O09cKOYxT6evr3911qxZLjk5OaLP0ZFIJN0Xes2sWbOa6evrX+a03pBmZ2fXDb1RzPsS9eJHjx7F3UdhnH6gRe7u7j5iv1BIJNLbJ3d3d2wiVsjJy84ePXrUXMz7EXUqaeHChR8BQGdO4U7MmjVrL6dYBEEQFWbWrFkhABDKKdz7Pj4+n4SEhIi2z16UxKBSqWDp0qXvxsTETOU0hgempqbLBg4cyKPTEkEQRKUYOnRoXmBg4HIAuMshnCwtLe3TU6dOtUKvFANREkNoaKjlF198MTUvL+9dDuHyHB0df46IiDhjaGgovYqABEHoPHK5vLR169ZRjo6O6zm1Am2+cuXKaaGhodYcYlWaak8MBQUF8qCgIC8A6M+pK9vFYcOGbXNzcyvgEIsgCKJKuLm5FQ4bNmw7AJznEA69uVdQUFB39EwO8SpHdS9qDB8+3Ixjn4Xi1q1b979//75kTgySSKS3V+hFrVu37inUUeLhcZeHDx9uWd33Ua2ZKDExURkdHf05NsXmEE6tUCg2//nnnyH169enKSSCIEQHvejPP/88rFAofsYDzRxCtoiOjv5PYmKiPodYFaZaE0NAQMD7t2/fHsUpXPzo0aN/5BSLIAiCG6NHj14HANd4xLp9+/bQTz75xDMuLo5HuApRbYkhPDzcJiQkZDwA8Kg9jn0WNo0ZM+Y6h1gEQRBcGTNmzA30KADI5hDONjo6ety1a9fsOMSqGNUxX5WSkqKnVConCobOOudWYmFhsXfDhg3WYp8OJJFIpPKE3rRhwwZLCwuLXcKUEqvvFSiVylkpKSnK6hh/tTwx7Nq1y0GlUk3j1GfhaceOHZePGTMmXS4XvdQTQRDEP0BvGjNmTCZ6FQCkcwhpoFKpJu/atcuJQ6w3o+nMExAQIDMxMQngtEJfamxs/P3Zs2flYn8iIJFIpDcJvcrY2Pi/vPzPxMTkl4CAAI33mdHoR+6srCz5iRMn+ufm5g7jEO5FDZEjR46sadeuHVVOJQhC8qBXHTly5CcAiBA8jInc3NyBJ06c+Ai9lc8Iy0ejwffu3dtg//79kwGAx+m9Jx06dPjR3t6eRzs9giCIasHe3v4BehcAPOIQznL//v0T9+7d25hDrNeiscSQlpZmsGHDBuzI1o5DVzZcvDny8ccfH61Xrx51ZSMIQmuoV6+e+uOPPz4GAH8IB99YQC9137Bhw7C0tDQjTkP8J5qao3rvvfda8uqzoFAo7o4ePdr5+fPnos8ZkkgkUmWF3jV69OgmCoXiDqf1hkfvvffe+5oar0aeGCIjI03u3r37DSZLDuGKbG1tvw8KCoozMzPjEI4gCKJ6Qe8KCgq6aWtru1To28BKrbt37y6IjIw05xDrH3BPDCdPnpT5+Ph8+OzZs668Qs6aNWsPp1gEQRCiMWvWrGAAOM4j1rNnzzr6+PgMQ8/lEe9luCYGPNQRHR3d/M6dO58CgDGHkA+WLFmyZsqUKU84xCIIghCVKVOmZCxZsmQtANzjEM7ozp0746Ojo13Re3nCNTFcvnzZ7Msvv5wgFMljzWKF77zzztb333//mL6+Pm1PJQhC60Eve//998PeeeedLXiamTEcemzLL7/88tPLly9bcBriC7gmhnXr1nXAZkYAoOAQ7nq3bt1+8fLyoj4LBEHoDF5eXoXdunXbAABXOYRDDx+8bt06Xi2S/wevVewZM2YYyOXyCE4r7iUODg4f3759m/oskEgkndPt27fBwcFhMK++DXK5/PyMGTOMeY3vhfGycvfuXeVHH300+/z58ws5dGXDybJf9+7dO93CwgIHZ8DpCYQgCEIKoMcVZmVlwaBBg7CW0hgOHlfSunXr/+7evXtxw4YNmXc9MSeGe/fuwdixY9uFhYVtBICmrAMS5t1+E85AWAJADQBQcohLEAQhBVS4qQgAMoU2BHgQmMdhtVsffPDB+A0bNpxq0KABWyTWR47w8HArAAgUbpbHNJKaYywSiUSSslScynKXxdqMvW9EnUrC7zUwMPBRqVTrOGU8giAIouoUKZXKGYWFhetksqpvDGXalbRr167aKpXqS0oKBEEQkkBfpVLN2bVrV32mKFV91Pj1118VNWvWXCSBRzESiUQivaSaNWsu//XXX6vc7a1KTww5OTnyiIiInhkZGT5MWYkgCILgTkZGxrCIiIj+6NVVClCVbHLo0CF8TDkoLBSLnh1JJBKJ9A+FTpkyxb6oqKjSHl/pb8jPz1d06dJlKj44SODGSSQSiVS+8gBgzvPnz/U0nhi6d++OnYNSJHDTJBKJRPp3PenevXtzja4xXLhwwfTGjRvYZ8GuSvNWBEEQRHVifePGjQUXLlyoUanvqmgGuXDhgszFxWUYZiAJZEESiUQiVUxPXVxcRl+4cEHO9YlBrVZjSW2na9eujQeAmlVNXQRBEES1Y3Ht2rVxly9fbo5eXiEqkj1SUlIMAWApr0qAJBKJRKpWYUYI2L17txG3J4a1a9e2BIDRVOWUIAhCK8H6GCO/+uqrdhX66jdljkWLFhkZGhr+LoGMRyKRSCQGGRoaHl+0aJEZ0xNDSkqKfmRk5KSCggK+3YEIgiCIaqegoKB9ZGTk9JSUFIN/+7rXVld9+vQpjBkzxj0kJOQXAHhPUwN9CRzIHQBIBYAsoVY5Knv69OnFlpaW1TAEgiAIzZGZmQmrVq3CZmZmQr8ZlIVwBMBBmPLRNNf79+8/fuPGjVFWVlblJoDXJobExERTJyenbwHgUw03ykkHgOMAcPTQoUOXDQwMngvNevIFFbZv315tZEQFXAmC0G7y8/Ph7NmzcqEzpZEgw8LCQvPevXvjB/AeANBVw7s/cRPRpoSEhM8cHR2fl/cFr00M9evX75+cnLxLuAGe4AUz6tevf7ZOnTpbXF1djwQEBGAiUOvr65c/GIIgCB2nqKgInxbk06ZNM4yNje2VkpIy6sGDB7hYbKWBJwlVvXr1Pnnw4MGucv+2vIWHAwcOmJiZmZ3UwOIHPgEcd3BwGH7ixAnLyh7TJpFIpLdF6JEODg4jhBmVfN5+bGZmdga9vrxrlzugIUOGfAQAzzkPJAkAZqxcubJRVFSU6D90EolEkrrQK9Ez0TsFD+Xpyc+HDBkypLzr/uMPAgMDG+jr65/kWFJbpaend3bq1KktMzIy9IqLi0X/YZNIJJK2CD0TvRM9FL1U6O3Mw5tx+j4sMDDwnb9f85Xtqunp6fphYWH9i4qKWnGa08oFgODx48ePCggIuGRlZVWsUNAZOYIgiIqCnoneiR6KXoqeKngrK7KioiL3sLCwvunp6a9uMHo5SwwcOLAhAPzJKRthLfBVfn5+9bOzs2ViZ10SiUTSdqGXoqeitwoey8Orz1y6dKn+y9d55aKmpqbTOdVDKlEqldsmTZpUIycnR/QfJolEIumK0FPRW9Fj0Wt5TPc3atRo6svX+Gsq6cSJE/rFxcWjONRDwrWJCD8/v9lr1qx5ZmJiwhiOIAiCKAM9Fb0VPRa9VvBcFvQePnw4GnPAX39SliF69uzZjtOjyeUJEyZ45OXlVbj2N4lEIpEqJ/RY9Fr0XA6+nduzZ8+2ZbFfPDHk5+fLi4qKsAmP/r+llQqQMXLkyFXLli2LMjIyYs1iBEEQxGtAj0WvRc9F72UMZ1BUVDQUcwH+5sV/VqxY0SQsLMyDdRrJwsIionPnzjvNzc1VjIMkCIIg3gB6LXouei9jKEVYWJjnihUr8MzEX2sMrQGgAWPgfAcHhx/Gjh2bxxiHIAiCqCDouei9wuloFnBXahv8H3lsbKzBunXrmgoV/lgIDgwMPM8YgyAIgqgkgvcGM4axWLduXbPY2Fh9eXZ2tlVycrIz44G2h25ubmtdXFwKGQdGEARBVBL0XvRgbKPDEEaOuQBzgp5QD9yRcVyx33777X1DQ0PGMGykpKTI1q9fbyrck5Xwaw1hr+/Tl/o8PPX29i7o0KGDqOMlpM/u3bv1rl+/Xl+olV+T2tu+9ZQKdeTuGhsb350zZ44kps7Re9GDe/bsGQsAdRhCNUbf1JsxY4YNANgzBMIDcTiYRwwxmNi6datlUFBQx+fPn3944cIFTHKYoYyFWucGwj7fsh4P+OuzrVu3xjZo0OAPV1fX8OXLl5eINXZCmty6dUvfz8+vz7Vr10Y9fvz4HeGDhtFL63LE2wkmBpwZyVIqlU+OHj26f+LEiZsHDx78TOyBCR6MW1e7M3yAcZgxY8aLXhCzGfe/Pvjiiy96qtXqatu/+/TpU72oqKj6bm5uw5VK5UGFQvFUSFCVKfyHX1ssk8nuK5XKn5VKZZ/w8PCad+/eFX1/Mkk8JScnyzp27NhIT0/vVyyRz6nkAEl3pVIoFKdMTU29rl+/LurZLfTgL774og8AJDPeE1ZyhUDGIH/6+/vXrq6bDwoKqunr6ztOqFFewPEfGB8JN3l4ePRMSEgwFdugSOJoyZIl+Ch9mGN1YdLboQfdunVrK/br19/fH6eRLjLeyzpMDL+xBHF2dt4fHx+v8SJ5ERERyn79+nmbm5vvF9YLNPGPi1NK91q3br1x0qRJTcX+RyZVr+Li4kyaNWu2kGNxMtLbI7WNjU3wzp07a4n5Go6Pj5c7OzsfYryXPZgYwlmCeHh4rNH0zZ45c6amiYnJPKE/dHV8ksPy4LdHjRo15OrVq8ZFRUWimxZJ8zIzM+sqvMbENhmSdirXyMhozunTp5Vivo49PDxYZ4FOyoVFNRZSGb//Xzlx4kTD/v37L8zNzf2PsCuEd+/T8lCUlJQ4bNmyZdW77747fc2aNaxnPAgtIDs7u4uGm7ATuo1xfn5+2+LiYrFfQ6yebK3HITFoZDdSamoqzJ492zkqKmp+enp6P6wAqInrvAE7AJjr7+9vq1Qq502ePDlLhDEQ1Yeb2AMgtB574bBwmohjYE0MVqyJoVRTP4CEhAT77du34zFvL5GSQhk18vLyxs+ZMwdUKtWL5KBUKivwbYQWQomBYMWeQxUJVlIFb67q7IqVXNjzzwL3Ax7h4eGW/fr1w0XAbiInhTKM8vLyfGbOnDnx5s2bxmIPhtAYrLVmCKJI2MQiJqxtPw0ld1gnLCzM2NfXd9Lz588Hiz2Wv4EnqKcuW7ast9gDITRGjNgDILSeJKHCglYjqcQQFxenGDFixIdJSUnTODzJaAK7bdu2/d/kyZObiD0QQiOU9TsniKqAr51EYTu9ViOpxHDs2LEGjx49mgQAtcQey+soKSlpcP78+TmJiYmmYo+F4EunTp2OAMB1scdBaC2PmzVrdsja2jpT7IGwIqnE4O/v3xcA3MUexxtQnD9//oNx48Z1vHfvnthjITiyY8eOG7169fpJKLRIEJVB3aRJk71BQUF/uLi4aH33SskkhmnTplkVFBRMBwBt2PJTLyIiYti9e/fE3q9McKRu3bqFnp6e2+Vy+V5hEZEgKgIuNl92dHT8tm3bts/FHgwPpLDjB5KSkmRRUVEz1Wr1O2KPpYJg5cIhXbt2/a2oqOh3sQdD8GPOnDlPnz17NuHEiRN/njt3bppQkt5A7HERkgSfDO47OTltd3R0XH7w4EGtX1soQxKJYdu2bbUuXLjgqYFa9yrhAJ4+ANhwPjWN21bx4B0lBh1jyZIlpWlpaUHr16+/tHv37s5xcXFNhX4M1lJ6yiZEobSsH4OJicntOXPmnO3evXtE27ZtdWqrsyQSAwC0AABeTwv4DxcNACG9e/e+/Nlnnz168uSJcujQodhsxRUAhjP2n/iL4uLi7p999pmC+jnoHra2tsXffPPNxUGDBl16/PixudD0ybiaSrIQ0qW0rB+Dvr7+sw4dOhSLPSBNwVJsSe3h4fEBS8Gn8PBwPblc/rXw6Z61iNVNOzu7mWFhYTVUKpWspKTkr+uoVCqUbMSIEdZNmzbFIlOPORTkK/by8vIUu/gbiUQilQk9mdXbRH8sLi0ttVGr1a04PL3cmzlzpl9gYOAqLy+vZ3p6eqVy+f+/PT09PVTp1q1b04ODgz9r06bNfKGSJgt4gZ6MMQiCICSF6IlBqGbJemAM5/eWL1myJKJv375v3CrWrFmznE2bNm1p2rRpMON1ZVeuXHHbvn27PmMcgiAIySCFxGDMeKBNXatWrd2hoaE7DA0NK7x/GJNDq1at/AHgNsO1IT093SIhIcGSJQZBEISUEDUx4HxYSEiIqVCHqKpk+vn5HfP29k6XySq3Lrhp0ybcXraD4dogNIinxEAQhM4gemJYsWKFNeM2VTyleqeqQ8CDKYz1cQwlUGaXIAiCG2JPJeFH/DqMMaqcGHBBeteuXfcB4AnD9emJgSAInULsxAAcSmCUCPuKqwvAEfEAACAASURBVISNjU0JY/kDmYTOgxAEQTAjdmLg0QEO1ycaVOUb1Wo1LF++HBe+azNcH5PSM4bvJwiCkBRiJwawsLBIY5zjt8rNzW1cVFT5D/1qtVp26NCh9xifWvKpGidBELqEqIkBD6Dt378/W6g9UlWsfvjhh06nTp0yq+w3RkREYKmD/gzXRgooMRAEoUuI/sTA4RM3ftofEhgY2BlLXlT0mw4ePCgfOXLkGABoy3BtEBKD1rfyIwiCKEMKiSGLYbtpGXWCg4O/8fHxsXxTcsAtsvn5+fKTJ096pqamfspYFK3U3d09YcKECazNtwmCICSD6InB0tIytXHjxmeF3UUsuO/YsePosGHD+oSGhpq9bs3h+PHjNsbGxlNWrFixCQCcGK+pNjc3D65Tpw71CSYIQmcQfZtlixYtinx8fGK//vrrdMbdQYh7cHDwT8HBwXtmzZp12sTE5BYW1xMarTTCctuBgYHdcepJOJjGhEKheObr6xvJGocgCEJKiJ4YBGIB4CGHxADCgblJP/zwwzAAeCpsJcWT1VbCCWVLXk9Kcrn8zMiRI2l9QUcJDg42Wb16dQthHaql8Nri3UyK0C5wdiADAK4AwMVOnTpFLVy4UOc2n0giMdSrV++OhYVFZFZWlisn01YKSYZHonkdBS4uLqx1lggJEh8fb9CmTZuOeXl589RqdXvhNUkNeoiXGYRJIjw8/Pa33367eMOGDQd9fHx0JkGIvsaAjB49urRt27brhU/42kLk2rVrT4s9CIIv586dMxo4cODonJyczWq1upPwhEBJgfg7+JqQl5aWOpaUlKwaP378t7t37zYXe1C8kERiQBYsWHDdwMBAWz6BP/X19d3RpEkT1lPbhISIi4uT+fr6et28efNLAKgr9ngIrcFCpVKNmTJlytidO3fqxIcIySSGtm3bloaGhq7F96fYY3kDuBPppIeHxz5LS0ud7ff6NnL+/PnGN27c+Jxj/3Hi7UH/yZMnUyIjI71zc3O1PjlIJjEgDRs2TOrYseNGAMgWeyz/Qnrnzp1Xjx49WmfmE4n/gU8LANCJpo6IKmK/Zs2aD8+fP1/pKgxSQ1KJ4Z133ikcNGgQTicd4HCuQROoTExMVs6ePfuM2AMhNEJrqb0nCK0CP1A46kIZfsm9CcaNG5fq6+v7uUKhOMdYXI83hdbW1utCQ0N/6tSpE00h6SZtxB4AofU0FrbGazWYGFhNTp/TWF5gamoKGzduTB0xYsRUALjGMzYDxfb29iG7du1a3r59e5pC0l1Ym0YRhKXQvEtMWD25WM5hPt+a8fvLJSAg4JqPj89XAHBVAk8OYe3atVvo5eV1X+RxEJolQewBEFpPqgTWSFk9OVtPKGJX1TkxnFOzYxxEudSoUUO1atWqo6WlpQ+3bdu2uqSk5H0RTp3mm5ub7z5w4MB8Jyenu9V8baL6uQAA7cQeBKHV3JJAGX47xg0UWXION6Gx/d6YHDZv3hwzatQorG20k7FvQ2VJtbe3n3/gwIHpnp6ed+3sNJL/CAnh6el5SgKf9gjtpbB58+aXbGxsMkQeB6snZ8o59BLQZNmJFwQEBKSuWLHi844dO86vhnUHLMsaUbt27Zk///xzgKenJ7XtfEtYtGjRaQnviCOkz5Vhw4btcnZ2zhd5HKye/CInbBPm8KskU1PT02vWrDHFPgea1r179wzCw8ObGBgYrAKAx8IbuMpj/5uK5XL5LaEkd8Nr167Jq+OeSNJRdna2bMaMGe8rFAoskKbm+Noi6b7yPD09B6WkpIjqG+jF6MmM94I5AWYzBrnr7+/vVZ03f+7cOVn37t2dLSwsVgnzwqnC7qrKjr1IaBIU4e7uvnDq1KmWYpsTSXz5+/u3UygU4fhml4DhkKQt9JCrnp6eY8V+3QqvXTykeZfxnmbj4vN14ZN3VRd2a506daplYmLiKUdHRzXjI0yFwPIZR44cidu0adOM5ORkBwB4b/Pmza63bt3CBWp7YTHdopx7KhIekx4BwE25XB6zYMECPC9xbcSIEU/s7e1Lq2P8hLRZvHhxVG5urs/KlSux9as3ADTRhUNLBFfyBAM+3bNnz40bNmy4JPaAEhMT5ejF6MkMYTAXXJcFBAS0nDZt2iEAsGUItv3w4cPTe/Tokc4Qg4krV67oZ2Zm2goJwXDAgAEmWVlZZaW3MSGkzJw5M7N///74D4qtOJ/KZLJ0Dw8Pmk8m/kFOTg5cvHjRBHd4JCcn24wcORI/gNSnfgxvPfjh8cns2bMT+/Tp8wRnKxo1avS0Xr16Yo8Ljhw5Yt2zZ0+cRRnOECYtICCgt56rq2umsMWKJTG0u379emNvb+90hUKc9w12ggOA+4IgI+OfGwNkMtkLEcSbwIOWnp6eucJ749bHH38cRTWUCIFSqXlJSUkJoAdz2G59C3OCntADAaeTOjIEa/DZZ5/19fPzu2BiYiKJchFyueSqfRBajPB6oqlGQpIUFBTooQejFzOGwlzwVO7s7Jw9atQobK2ZwxAM3zXj5s6dW59xUARBEEQlEbx3HGP9uxzMBZgT5FZWVuomTZr8WTYFw0CtEydOfPXw4UMDxjgEQRBEBUHPRe9lXHRG7mMuwJzwIru4u7vHN2jQIJH1UTk+Pr7XyJEjO9++fVs6k28EQRA6Cnotei56L2OoUswBmAug7LGjW7duec2bNz/JodJq7VOnTk2NiYmxZ4xDEARBvAH0WvRcDqedizEHYC6Al+ej7Ozstsnl8seMwXFLUvcJEyZ8c/nyZa2vSU4QBCFV0GPRa9FzWbdRo/djDij7vQxPy5VhZma2OCcnx59xvEipra3tvN9++21Zhw4dCjjEIwiCIATOnDljOHjw4M/T0tIW8NhGbWpquiQ7O/s/Zb9/ZQV77ty5+wAgmfUiONC0tLSpY8aMGYE3wCEeQRAEISQF9Fb0WE5na5IF7/+LVxLDgAEDEs3MzA4IBcRYsU5ISPgvZjWaViIIgmAHvRQ9Fb2VU5M0NXo+ev8rf/r3IkyrVq3Ck3NxHItMqS0tLTft2bPH4datWzKxi0yRSCSStgm9Ez0UvZRz5d849Py/X+8fA4iJiTFwdXWdh4fpOF5cBQC/d+7cuXtycrKB2D9kEolE0hahZ6J3oocKXsrLlwvQ69Hz/37Nf5ySc3V1LXRxcVknk8kS//53DGDpjR6nTp3a6O3tvWbKlCkOubm5eljfgyAIgngV9Eb0SPRK9Ez0TvRQwUu5gB6PXo+e/4+/K31pV9LLDBgwoH9ISMhm7LDJayAvgVUJNyxfvvxg8+bNE7E6oaOjI2UJgiDeahITExW3b9+2un79uqNQ+2gsANho4FLP+vfv77N///6Q8v7ytYkhMTHRzMnJaTEA+AGAJspc4DzZAwA416FDh9jOnTtfrFOnzp+TJk2iVpoEQbxVrF27tkZKSkqbU6dOtTpz5owrALwvlHnXRDVQfEIITEhI+I+jo2O5Pc5fmxjy8/NhwYIFjZYuXfoTAHyg4ZLDuJ7x2NTU9GHLli2xG1uasG02RWjhWaTBaxMEQVQn+kJdozoAgI0cbC9dumSXk5NTV/hzTW7xR8MPmzt37qfz5s27bWRk9JqvesPCx5IlS941NDS8KlLbPDWJRCLpqKrdU9HL0dPf5PsVWhVv3LjxR8KneDGSA4lEIpHYlYZeXhHPr9D81XfffYcLFN9iYzTOjzUEQRCE5kHv/lbw8jdTkeyhVqshJCTEwNra+lPscSqBzEcikUikiikVvRs9HL28Ip5fqYMWe/bsUVpbW08DgEwJ3CyJRCKR/l2Z6Nno3ZXx+kqfwgsJCcFl7KnCVlOxb5pEIpFI5Qs9eip6dmV9vtKJAR9FUlJSlPPnz+9uaGh4QazVdRKJRCKVKzV6M3o0enVFp4+YEsPL6tixYzMAuCuBHwSJRCKR/qe76M0s3l7lU3V79+7VS0xMdAEAZVVjEARBENxRJiYmvoseXeUIVZlK2rdvn4WlpeVsAHgogexIIpFIpFeVYmlpOXffvn2W1TKVdODAAWw6jWUy8iVw8yQSiUQqX1hq6JcDBw7YaTQx7Nmzx9rGxuZHACiWwE2TSCQS6d9VYmNjs27Pnj21uCcGfBQ5cOBATRsbm+UAkCuBmyWRSCRSxZRrY2Oz8sCBA9ZcD7jt27cPezavFqqcin2TJBKJRKqc0LvX7du3ryaXxPDbb78pLC0tv+Lc6pNEIpFI1atCS0vLr3/77Tc95u2qhw4d6p2ZmTlZQ816CIIgiOpBPzMzc+KhQ4f6vOkLX7vPNT8/X75w4cL2QUFBi4WGEpqiSGjGk9q+ffvTCoXiJgA8ErbCYsG+Jzt37iyqU0eTQyAIgtA8KSkpMGzYMH2hXacdAGBzntolJSVNzp4920n4s1pCMx9NYBcUFLSodu3aGd98880ZIyMjdXlf9NoObvPmzau9cOHCnwGgj4a6t2EZ2D/feeedyJEjR14EgEvz589/olTSeTmCIN4uVCoVzJ8/H5NFq61bt7a6f/9+RwBoAwBWGrgcmv7v33zzzfgFCxY8Ku8LXpsY7OzsZqSlpS3VQObCDHXK19d37ZAhQ/60srJ62LZt23KzFkEQxNtGdHS0/OnTp/X27NnTNigoaBIAeGig93ORra3t3NTU1JXl/m15Cw+ffPKJs0wm432qOQ8Azjdt2nT0pEmTDAsLC2WVPXRBIpFIb4vQI9ErmzZt6oveKXgoN09Gj0evL+/a//iD2NjYGq6urjiFpOI4iOeOjo7Lpk2b1jA5OZkSAolEIlVQ6Jnoneih6KUcfVmFXo+e//drvvKbO3fuyFxdXftzroGUaWlpOTMqKspC7B8wiUQiaavQQ9FLOTdKe4iej97/8rVembe6du2adWxs7EhhZZwVXDeIq1279tgTJ06sff/997M4xCQIgngrQQ9FL0VPRW8VPJYVO/R89P6X//CVxWczM7MPcnJyggHAnMMFbzg5OX26cePGiA4dOpS/wk0QBEFUijNnzsjGjBnjkZCQgMVMm3II+dzU1PTD7OzssLI/+PtK9yhOSSHb1tZ2ISUFgiAIvqCnoreix6LXcghpLnj/X/yVGMaOHdskLy+vH4eL5FpaWv7f4cOH91FSIAiC4A96K3oseq1Q2JQJ9H7MAWW/f5EY4uPj4dKlS6PUarUZY/xCR0fHzX/88cdPrq6uBayDJQiCIMoHPRa9Fj0XvZclFno/5gDMBVCWGLB6amxsbFsAUDCO9V6vXr0C33///aeMcQiCIIg3gF6LnoveyxhKgTlAqKT911TSuwDQkDFwadOmTbd8/vnncYxxCIIgiAqCnoveK2w/ZaGhkAsAj14rEhIS8GmhPmPQ615eXj/WrVu3hDEOQRAEUUHQc9F70YMZQ9XHXIA5QRYREWHt4eERAAAfMwTE9YSZOTk5601MTKjuEUEQRDWSm5srNzU1nQAAKwDAkCHUjoiIiGlYdtsSAJwYx3Xz+++/P2NoaCh6Uih9tSjgy1VhX/0LmSYKxhK6xkuvJ3rBEC/z4oUhFR9B70UPnj17dgIAtGAIhbnAUu/y5cu42NCIIRD+gKKcnZ3vKhSsa9dV4/79+8q7d+9a37x5s/6ECRPqCie36wl9JGoLPR9SACBN+PXBp59+mvLxxx+nWVhYPGnRogVtqyVeIScnR37p0iW7efPmNT516pQblkMWplvFeZETUqFU6B9z2cLC4lJISMjNRo0a3atbt65KzEGh96IHA8A5YZ2gqhmrkZATYIhwtLqqtTaedejQYUJCQkK11w7ZtGlT7cWLF/fr2rXrNwAQIjT4qVDxKAC4BQC7HBwcpi1evNhj8eLFNbAmutj1UEjia8eOHbLJkyf3AIADmCN4VrQk6ZSK8UNxr169Ri9dutRM7NctenCHDh0mMhbaUws5AeYz/nBu+vv7t6rOH0B0dLRpjx49fCwsLI4JBf+KGMafJySJ3729vT0DAwPlYv8Dk8TTzp079aytrbGV7W3GD0ykt0P4GnmsUCh++eqrr/TFfv36+/vjRqJExnuar8c4HwWmpqb37ezsrrDEqAiZmZmypKQkK19f3/YJCQlfFxQUuAqtSVkn+YyEqTSHY8eOeZw6depwfn7+Gm9v74vNmzdnPlFIaA85OTmK06dPD0xPT/9SaLlIEG8C/cempKRk1IkTJ5LS0tKW2draFok1GDs7u1hTU9OHOTk5jRnCvMgJ4SzZxcPDY4ums2B2drbcx8fHHQC2VNOj/aPatWsvPn78eD2xPwGQqk/Tpk3DN9MpCXwKJWmn7vTq1avrgwcPRO054+HhsYPxPjAnQCxLEA8Pj+80faNjxozpJHQw4tk86E3Ks7e33zp48GCnx48fi25aJM0LS4YxTkuS3m7hmsPqkydPirre4OHh8QPjfcTKhe2qLKQwfn+5FBUV4WKK8ejRo0du3rx5m7ArRE8T13oNRklJSUN/++23HZ07d+6QmppandcmxAEbsCvFHgShteCONRcAqCnyOB4yfr8lJgYLhgCYXVIZB1EuSUlJRk2aNJm4efPmH0pKSuqLtI8ck0HL69evbxk4cGDXGzdu0FZF3aa12AMgtB5cr7QSeQwpgjdXFQtMDKaMg8hk/P5y+e9//9sbAGbjwo4m4leShtHR0fN9fX1bPnzImowJCWMr9gAIrceC8eQxDzIYv99UXk6znsrCtTYSHu0eO3Zs661bty6T0BsVf0bu586dW5iYmMhabJCQLgliD4DQelI5Nc9hgdWT5axJgSuZmZkwefJk540bN64sKSlpIPZ4/gZOI/Xo06fPosjISNa+FYQ0iRZ7AITWg2cItL7tgKQSw507d8w3b948RpjrlUYRkr+Rm5s7aNmyZR+KPQ5CI5wVDjwSRFXAXZNXKTFwZsyYMc4AMFziO0MMT5065RsYGGhfUkIVxnWJLVu2RBgYGIQIp1kJolLo6eldnTlz5nZ3d3ed6F7Jst9V7eHh8QGPvbfR0dH6BgYGByWwF7kiwk+VX0VFRRmIvfeexFdLlixpJRQio3IYpMooo1u3bn3Ffv2W/u8cwwesr1/JPDF88803noWFhR+IPY4KgmU0hgYGBrJUpSUkSJcuXWKaNGnyH+EEND05EG8CjTROqVTOGzNmzB9iD4YXkkgMmzdv1ouOjh4tgW1elcF527Zt2pLIiArSrl07dXBw8PGgoCA/uVz+vUwme0JPD6TXqEAul++eNm3amPDw8PVDhw7VmbllSZzmffDgwbtZWVnvcVxwxsWfFDs7u0dOTk4JhYWFxufOnXMUDp7gYTkTDtdQlJaWDrt8+fKP7733XimHeIREaN68OSpx9OjRc+fPn+9/6tSppsLJ+3pSec8QooEfEp4I/Riu7N+/XycLbYr+Ir9//z6Eh4e7cqpmibVKLgwePHhj06ZNw1u1anVvwIABhc+fP5ctW7YMt5jar1+/vsfjx48/FRpfs12suNh11qxZdcLCwujUm44yf/58fE1dE0QQbwWiJ4akpCTT48ePY4esGhzC/TJw4MDVP/74Y2Lt2rX/6qhkbm5eumjRImxecblnz57xx48fvzRv3ry5ANCZsSOXAQB4AcCvHMZOEAQhCURPDEIbzvcZp5Fwbu+39PT0WWZmZvn6+vqv/cL27dsXtW3b9riJicndefPmbc7NzW3HcF15dnZ235SUlG116tShhUqCIHQCKSw+mwm9mVmIGzhw4DJzc/N/TQplKBSK0s8++yyxRYsW3wJAPsN1ZefPn6+zfv161npTBEEQkkEKicGQsfR3/uDBg3evW7fumlJZuXNxixYtCgWAowzXBmHrKkuFWoIgCEkhamJQq9UwcOBATArGDGEymjVrdql27dqFlf1GT09PXIc4xnBtEBKD2GV2CYIguCH6E0NmZibrNFKm0Li90sjl8tJevXpdZ6yPQ4mBIAidQuzEIONgqtlV7SInl8th9uzZzwDgMcP19Tn0tCAIgpAMYieGUg61y41YWumlp6cbM65x4D53nSiaRRAEARJIDMChPyk+cTSuyjcWFxfLPvroIyfGMxT5mupiRxAEIQaiJgaZTAYzZsxAU630wvFLWB4+fNgpPj6+Kucg8HvaMlwbhKeFLMYYBEEQkkH0xDBgwIA8RmM1u3DhwsAbN244YMnZilJQUACffPJJM6ySynBtoMRAEISuIYWppByhT2pVwU/9XT/88MOpJ06cePPpNoF58+bZ7dy58wfWMwjW1tbpTk5OlBgIgtAZpJAYcEfQFcYYmBx8R44cOfb333//V6PPz8+XffHFF/bh4eH+WCGD8brqFi1aRA4fPlxVga8lCILQCkRPDG5ublkTJkyIYSxNgZinpaUt8fPzW92hQ4emGRkZ8pKSEhm23xR+RcnHjBnTfunSpduio6N9OWwzVcvlcp1pzkEQBAFSKKJnbm6url+/fhRW4AaAJozhLFNSUkampKT0tba2jgaA80JzbtyS6o55CABaClVRmVEqldePHTvG+rRDSJSHDx/qJSYm1hB2vlkKW6N59QwhtBNcyCwCADz/lGljY5Ph7OxcJPageCN6YhDA08d3AMCJ0xsP38zdBGmS3zUcnxCJpUuXmkVERAz8448/ugofWByEBCH6UzYhKmVnr+5hxYXmzZufHjZs2O5x48Yl29nZiT02rrC0tlNj42nW5tW3b9+GVq1aTQAAlQTa9VVUqQEBAR3EbvxN4i9/f38bhULxi7D+JfbrjCRtYZI46OHh0Vrs122Z0JNZ29FK4tOPg4MD9toNksvl58UeSwVR1atXb1OXLl1ixR4IwY+cnBw8V9Po//7v/34rKSnBNSgbscdESB5cp+wdERFxxNPTs3VqKssGS+kgicSArF69WjVq1KjvOZTIqA7ip02btsfFxUUn+72+rcTExJitWrVqfElJSRspvTcIyYPT35YRERHf/PLLLzxaFIuOpF78U6ZMOQ0AoWKP4w2oWrduHTxgwICrYg+E4Mt//vOf1gDgI/QIIYjKgMnBc+fOnR/FxcVVrjGMBJFUYnjvvffSFy9e/CN2ZBPmuqRGqUKhOOfu7h7g6OhIZxd0jIiICOzfbSv2OAitxez69esdnjx5UuWinlJBUolBT0+vtG3bthH29vaLsPCp2OMphysjRoyYvnbtWiqap5u0FnsAhNbTmLFasySQVGJAunbtqg4KCgo2NzdfKexSkgr3fHx8lqxateqa2AMhNEYLsQdAaD0NGKs1SwI5Y/cy0MQPAVtuHjp06CdLS8tADieieZDer1+/ZatXrw6xsLCQUrIi+ML6XiAIrBRdIvIYWD05T85YGRQXXDRyqqNjx45P9+7du8De3v477OusiWtUAFznuNOvX78vvL2915mZmencCUfiFS6IPQBC68E2w09FHoMd40HhLLlwtJsFjS3WdenSJf2XX3753tra+msAeKSp67wGPCBywcfHZ+bWrVu3TJkyRV3N1yeqn0tiD4DQepIkUIaf1ZOfsT4x8BjEv+Ll5ZWzf//+jRYWFhMNDAyuVMO6Az4lFCoUiuOffPLJmJUrV/5hZmZG00dvAZs2bToGADfEHgehtTyZMmXK0datW4u9OYXVk188MTDt/snIyKh348YNjdZc6tChQ2FmZua+lStXdu/Ro8ci4c2rCbPGOeZId3f3aRMmTOi/ZcuWaxYWFsUauA4hQVq3bn2ladOm30tgKoDQPtQ2NjbbOnbsuMfExES02QX0YvRkxjAvcsIKxlohl/39/RtVVx2QgoICua+vL/ZR+EEoZMWj3gkuFl2vV6/eZ0uXLm2ckJAgF7veCUkcRUVF1WzSpMl3Qmc+sevwkLRDxUql8tju3bvri/36RS9GT2a8H8wJ4MsY5PGXX345VK1WV9vNP336FM6ePWvm6uraQk9Pb7qenl6oTCZ7Lhi8+g0FpMr+Hp8EMvT09Dbr6ekNDwgIaH7lyhWl2P+wJPF1/fp1K1NT00+FUvAlrAXJSDorfF08lcvlyzZv3txY7NctejB6MYfij74yNze3djExMaEMTWsw0I+HDx+e26NHD9G2ls6ZM8fqwoULPYSeC7aRkZF2KpXKROi9gP+ABU5OTs/r1q2bBgB3ASBKoVCcPXbsGNU7Iv7BrVu3YMKECfYA0DcvL69ddHS0vdCPQXJnf4hqBf2usEmTJql16tTBIpoHJ02adGHw4MGlYg/syJEjRj179lyK1YUYdiXluLm5dZNFREQ09/Dw+A0AmjGM6fThw4fH9OjR4xZDDK4sXbpUkZeXZy7s6cWng8zevXvntWnTRvR/QEK7yMjIkAUEBGAvBix1oBB7PISooH8879ev3+NWrVpJav3xyJEjjXv27LkRADoxhImPiIgYjImhroeHBx4k680Q7Lmbm9vIs2fP/m5oaEjGSxAEUY0UFBTI2rdv3ycmJmYrNsZkCHUoIiLCT25mZva4Xr160cKn6qpiHhMTMycuLs6MIQZBEARRBdB70YMZk0Ix5gLMCXJXV1fVxIkTYzkcIOswYcKEPowxCIIgiEoieG8HxjCPMBdgTihbSMPtTcmMQWV37tyZtGHDBipbTBAEUU2g56L3MpbBACEHXH7xf7jNKS8vT/bBBx8ECFvzWLY55RoZGc07cOCAsdhbt0gkEknXhV6Lnovey+jdJZgDMBdg3BdPDEZGRqX6+vq7OFQyNc7Pz59w6NChQfn5+Ro9DU0QBPE2gx4reO0E9F7WcJgDMBe8+F1Z5gkLC1MaGhqe5HTwI2HKlCmtxM6mJBKJpKtCj0Wv5eHZ6P2YA8piv3IhBweHwQBQxONCSqXyzOTJkx1ycnKovASJRCJxEnoqeit6LKcP8kXo/S9f45ULXrp0qQ4AHON0Mdz+etjPz69tdna2QuwfJolEImm70EvRU9FbBY/l4dXH0Ptfvs4rx/vr16//5KOPPgrGA2uM81UgnBD1DgwM/HHu3LndOcQjCIJ4q0EvRU9Fb+V0Cv85AvET2gAAG39JREFUej56/8t/+EpisLa2Vn3wwQf79fX1I4VMwgoO3H39+vVr3333XZ8NGzYYl5SUsG6pIgiCeGtAz0TvRA9FL0VP5ZQUcNNRJHo+ev+rf1PO48qQIUM8hQNvPB5TypQNAFtXrVrV5dy5c7SdlUQikd4g9Er0TPROwUN5evIj9PryrlvuYEJCQhRmZmZrOQ+iTHcdHByWfv75525JSUl6Yv/gSSQSSWpCb0SPRK8UqkFz92L0ePT68q7/4jBDeYSEhDQbMGDAHgBw5vDI8ndw51OSs7PzSTMzsx2jRo26OG7cuAKZTKbW09PjMYVFEAShNRQXF6MXy3/55RfDLVu2tMrOzv44Li4OnxSw3Lu+Bi4Zt3///iH9+/ePL+8vX5sYHj58KPP29u4eHx+/VhicpigVpq1OODk5haxbt+6h0D0rTzhwVyj0UyAIgtAF5EKfGCPhYJrhxIkT6yYkJPTHNvcAUJtDeYt/I6lZs2aTjh07drRu3brlJoDXJgYkJibGaMyYMRNjY2MXMDTyqQxq4Wh3ptB3F399xlj5lSAIQkroCX1iLAHASvjVpJqaQOW4urrO27hx4zo3N7fXV7p401xXXFycRZ06dbZraL2BRCKRSNUk9HL09Df5/hszVPPmzbNatWo1HRs4CGsDBEEQhHaB3n0IvRw9/Y1fXZEV8mfPnkGfPn2aYn9TXiUzSCQSiVQtQs8+iB6OXl4Rz6/w9qnk5GRZ7969cYfSaQncKIlEIpEqptPo3ejhFfX7Su2tzcnJkfXp06chAIQLO4fEvmESiUQilS/06HD0bPTuynh9pQ9e5Ofng5+fX0NXV9f1Qk0lsW+eRCKRSK/qOXo0ejV6dmV9vson82JiYmydnJy+ojUHEolEkpSK0JvRo6vq71XeN9uwYcNHNWrUCAKA2KrGIAiCILgTW6NGjU3o0VWOUJVs8vDhQ0W/fv3eA4BgCWRHEolEIr2q/f369XNFr66Kx1dljUHeq1cvrOERQdNIJBKJJElhGe3IXr16dUXP1mhiyM3Nlfft27czANzDMuESuHkSiUQilS/06Ad9+/btmpubW6knh8pMHyl79+7dS1MlYEkkEomkEd3v3bt334cPH+pzTQzPnj3DJ4WuwkKzWgI3SiKRSKSKCT37at++fbs/e/asQk8Ob/wClUoFffv2dcH63TR9RCKRSFopTA7xffv2fQ89nTkx+Pr6NgCAaAncGIlEIpHYdN7X17fhm3xf79+2ssbExFjHxMTMAYD3qrwfthI7ZwHgDgCkAkCW0IsBlT19+vRiS0vLahgCQRCE5sjMzIRVq1ah75oJfRhQFgBgBwAOGm7Qg7SIiYmZGxMT87Wbm1v6677o3zq4Kb29vcfGx8d/KwxeU+DgjgPA0UOHDl02MDB4LtT4yC/r4Na+fXu1kZGRBodAEAShebA8xdmzZ1/u4IYyLCwsNO/duzd+AO8BALieW1ODw8hs1qzZV8eOHdtQt25dVXlf8NrEUL9+/U7Jycn7NDBAvGBG/fr1z9apU2eLq6vrkYCAAEwEan19/fIHQxAEoeMUFRXh04J82rRphrGxsb1SUlJGPXjwoJ3Q5Y33k0RGvXr1Bj548OB0uX9b3vzSgQMHTM3MzA5pYH4LnwCOOzg4DD9x4oRlZQ9dkEgk0tsi9EgHB4cRwoxKPm8/Ro9Hry/v2uUOaMiQIZ/g3D7ngSQBwIyVK1c2ioqKEv2HTiKRSFIXeiV6Jnqn4KE8PTkbvb68677yG5z/WrBggbO+vv45jhdX6enpnZ06dWrLjIwMveLiYtF/2CQSiaQtQs9E70QPRS8Vyl1w8Wf0evT8v5fmfuU3ly5dwoWQ+bjgy+nCOQCwa+LEiY3F/uGSSCSStgu9FD1V8FYeHo1ePx+9/+XrvHLRgQMH4napy5wumAcAq/z8/OpnZ2dXqnsQiUQikf4p9FL0VPRWwWN5ePUV9P6Xr/PKRU1NTacBQDGHC5UolcptkyZNqpGTkyP6D5NEIpF0Reip6K3osZyqURSj9798jb8a9Zw4ccKsuLjYDwAUjNug8Oh1hJ+f3+w1a9Y8MzExYQxHEARBlIGeit6KHiu0P1AzhlSg92MO+OtPyjJEz549BwkHy1izz+UJEyZ45OXlVboGOIlEIpEqJvRY9FpO0/8FmAPKYr94Yli/fr3i9OnTAwBAnzHzZIwcOXLVsmXLooyMjFizGEEQBPEa0GPRa9Fz0XsZw+ljDsBcgL95kRjS09Ob5OTkvMt6us7CwiKic+fOO83Nzcs9Zk0QBEHwA70WPRe9lzGUDHMA5gIoSwxCkbx6jIHzHRwcfhg7dmweYxyCIAiigqDnovcKp6NZqFdWMFUeGxtrtG7dupYcCuUFBwYGnmeMQRAEQVQSwXuDGcNYYi7AnCDPzs6ulZyc7P7S00NVeOjm5rbWxcWlkHFgBEEQRCVB70UPBoAUhjByzAWYE7AueA0AaMA4rthvv/32vqGhIWMYNlJSUmTr1683FZ5+rIRfawh7fZ++1Ofhqbe3d0GHDh1EHS8hfXbv3q13/fr1+kKt/JoctnMT2g3u4MHWAHeNjY3vzpkzRxJT5+i96ME9e/bE9st1GEJhLqihN2PGDDTQugyBioVe0I8YYjCxdetWy6CgoI7Pnz//8MKFC474cwIAY6HWuYGwz7esxwP++mzr1q2xDRo0+MPV1TV8+fLlJWKNnZAmt27d0vfz8+tz7dq1UY8fP35H+KBhxPhkTWg/ZWUkspRK5ZOjR4/unzhx4ubBgwc/E3tgggfj1tXuDB9g6go5AaYx7n998MUXX/RUq9XVtn/36dOnelFRUfXd3NyGK5XKgwqF4qmQoNSVGDd+bbFMJruvVCp/ViqVfcLDw2vevXtX9P3JJPGUnJws69ixYyM9Pb1fsUQ+p5IDJN2VSqFQnDI1NfW6fv26qGe30IO/+OKLPgCQzHhPmBNgPWOQP/39/WtX180HBQXV9PX1HSfUKOdxIK9M+Ei4ycPDo2dCQkK5NcpJuq8lS5ZgkbLDlfyQQSI96NatW1uxX7/+/v44jXSR8V4wJ7x4E1Q5iLOz8/74+HiNF8mLiIhQ9uvXz9vc3Hy/sF6giX9cnFK617p1642TJk1qKvY/Mql6FRcXZ9KsWbOFHIuTkd4eqW1sbIJ37txZS8zXcHx8vNzZ2Zm1yRrmBIhmCeLh4bFG0zd75syZmiYmJvOE/tDV8UmuWKFQ3B41atSQq1evGhcVFYluWiTNy8zMrKvwGhPbZEjaqVwjI6M5p0+fVor5Ovbw8AhkvI9oXEizYFzwSGX8/n/lxIkTDfv3778wNzf3P8KuEN69T8tDUVJS4rBly5ZV77777vQ1a9aw/owILSA7O7uLhpuwE7qNcX5+ftvi4mKxX0OsnmxRtl2VBY3sRkpNTYXZs2c7R0VFzU9PT+8HAHqauM4bsAOAuf7+/rZKpXLe5MmTs0QYA1F9uIk9AELrsRc+bKeJOAbWxFBDj/GJoVRTP4CEhAT77du34zFvL5GSQhk18vLyxs+ZMwdUKtWL5KBUKkUcDqFBKDEQrNhzmIVhJVXw5qrOrljIhX3+LHA/4BEeHm7Zr18/XATsJnJSKMMoLy/PZ+bMmRNv3rxpLPZgCI3BWmuGIIqETSxiksv4/QaSO6wTFhZm7OvrO+n58+eDxR7L38Apt6nLli3rLfZACI0RI/YACK0nSaiwoNVIKjHExcUpRowY8WFSUtI04fSy1LDbtm3b/02ePLmJ2AMhNMKfwiM4QVQFfO0kCtvptRpJJYZjx441ePTo0SQAqCX2WF5HSUlJg/Pnz89JTEw0FXssBF86dep0BACuiz0OQmt53KxZs0PW1taZYg+EFUklBn9//74A4C72ON6A4vz58x+MGzeu471798QeC8GRHTt23OjVq9dPQqFFgqgM6iZNmuwNCgr6w8XFReu7V0omMUybNs2qoKBgOgBow5afehEREcPu3bsn9n5lgiN169Yt9PT03C6Xy/cKi4gEURFwsfmyo6Pjt23btn0u9mB4IIUdP5CUlCSLioqaqVar3xF7LBUEKxcO6dq1629FRUW/iz0Ygh9z5sx5+uzZswknTpz489y5c7jW5chh5x6hm+CTwX0nJ6ftjo6Oyw8ePKj1awtlSCIxbNu2rdaFCxc8NVDrXiUcwNMHABvOp6Zx2yoevKPEoGMsWbKkNC0tLWj9+vWXdu/e3TkuLq6p0I/BWkpP2YQolJb1YzAxMbk9Z86cs927d49o27atTm11lkRiAIAWAMDraaFUqP8U0rt378ufffbZoydPniiHDh2KzVZcAWC4cAiFmeLi4u6fffaZgvo56B62trbF33zzzcVBgwZdevz4sbnQ9Mm4mkqyENKltKwfg76+/rMOHToUiz0gTcFSbEnt4eHxAUvBp/DwcD25XP618OmetYjVTTs7u5lhYWE1VCqVrKSk5K/rqFQqlGzEiBHWTZs2xSJTjzkU5Cv28vLyFLv4G4lEIpUJPZnV20R/LC4tLbVRq9WtODy93Js5c6ZfYGDgKi8vr2d6enqlcvn/vz09PT1U6datW9ODg4M/a9OmzXyhkiYLeIGejDEIgiAkheiJQahmyXpgDOf3li9ZsiSib9++b9wq1qxZs5xNmzZtadq0aTDjdWVXrlxx2759uz5jHIIgCMkghcRgzHigTV2rVq3doaGhOwwNDSu8fxiTQ6tWrfwB4DbDtSE9Pd0iISHBkiUGQRCElBA1MeB8WEhIiClj6e9MPz+/Y97e3ukyWeXWBTdt2oTby3YwXBuEBvGUGAiC0BlETwwrVqywZtymiqdU71R1CHgwhbE+jqEEyuwSBEFwQ+ypJPyIX4cxRpUTAy5I79q16z4APGG4Pj0xEAShU4idGIBDCYwSYV9xlbCxsSlhLH8gk9B5EIIgCGbETgw8OsDh+kSDqnyjWq2G5cuX48J3bYbrY1J6xvD9BEEQkkLsxAAWFhZpjHP8Vrm5uY2Liir/oV+tVssOHTr0HuNTSz5V4yQIQpcQNTHgAbT9+/dnC7VHqorVDz/80OnUqVNmlf3GiIgILHXQn+HaSAElBoIgdAnRnxg4fOLGT/tDAgMDO2PJi4p+08GDB+UjR44cAwBtGa4NQmLQ+lZ+BEEQZUghMWQxbDcto05wcPA3Pj4+lm9KDrhFNj8/X37y5EnP1NTUTxmLopW6u7snTJgwgbX5NkEQhGQQPTFYWlqmNm7c+Kywu4gF9x07dhwdNmxYn9DQULPXrTkcP37cxtjYeMqKFSs2AYAT4zXV5ubmwXXq1KE+wQRB6Ayib7Ns0aJFkY+PT+zXX3+dzrg7CHEPDg7+KTg4eM+sWbNOm5iY3MLiekKjlUZYbjswMLA7Tj0JB9OYUCgUz3x9fSNZ4xAEQUgJ0RODQCwAPOSQGEA4MDfphx9+GAYAT4WtpHiy2ko4oWzJ60lJLpefGTlyJK0v6CjBwcEmq1evbiGsQ7UUXlu8m0kR2gXODmQAwBUAuNipU6eohQsX6tzmE0kkhnr16t2xsLCIzMrKcuVk2kohyfBINK+jwMXFhbXOEiFB4uPjDdq0adMxLy9vnlqtbi+8JqlBD/EygzBJhIeH3/72228Xb9iw4aCPj4/OJAjR1xiQ0aNHl7Zt23a98AlfW4hcu3btabEHQfDl3LlzRgMHDhydk5OzWa1WdxKeECgpEH8HXxPy0tJSx5KSklXjx4//dvfu3eZiD4oXkkgMyIIFC64bGBhoyyfwp76+vjuaNGnCemqbkBBxcXEyX19fr5s3b34JAHXFHg+hNVioVKoxU6ZMGbtz506d+BAhmcTQtm3b0tDQ0LX4/hR7LG8AdyKd9PDw2Gdpaamz/V7fRs6fP9/4xo0bn3PsP068Peg/efJkSmRkpHdubq7WJwfJJAakYcOGSR07dtwIANlij+VfSO/cufPq0aNH68x8IvE/8GkBADrR1BFRRezXrFnz4fnz5ytdhUFqSCoxvPPOO4WDBg3C6aQDHM41aAKViYnJytmzZ58ReyCERmgttfcEoVXgBwpHXSjDL7k3wbhx41J9fX0/VygU5xiL6/Gm0Nrael1oaOhPnTp1oikk3aSN2AMgtJ7GwtZ4rUbO4ZO5PqexvMDU1BQ2btyYOmLEiKkAcI1nbAaK7e3tQ3bt2rW8ffv2NIWku7A2jSIIS6F5l5iwenIJJgbWOj/WjN9fLgEBAdd8fHy+AoCrEnhyCGvXrt1CLy+v+yKPg9AsCWIPgNB6UiWwRsrqybl6Qsnrqu6/xTk1O8ZBlEuNGjVUq1atOlpaWvpw27Ztq0tKSt4X4dRpvrm5+e4DBw7Md3JyulvN1yaqnwsA0E7sQRBazS0JlOG3Y9xA8VzO2AsBNLnfG5PD5s2bY0aNGoW1jXZyGGtlSLW3t59/4MCB6Z6ennft7DSS/wgJ4enpeUoCn/YI7aWwefPml2xsbDJEHgerJ79IDKzZTZNlJ14QEBCQumLFis87duw4vxrWHbAsa0Tt2rVn/vzzzwGenp7UtvMtYdGiRaclvCOOkD5Xhg0btsvZ2Tlf5HGwevKLnPCrMIdfJZmamp5es2aNKfY50LTu3btnEB4e3sTAwGAVADwW3sBVHvvfVCyXy28JJbkbXrt2TV4d90SSjrKzs2UzZsx4X6FQYIE0NcfXFkn3lefp6TkoJSVFVN9AL0ZPZrwXzAnwBWOQu/7+/l7VefPnzp2Tde/e3dnCwmKVMC+MCz7FVRh7kdAkKMLd3X3h1KlTLcU2J5L48vf3b6dQKMLxzS4BwyFJW+ghVz09PceK/boVXrt4SPMu4z19gYvPiYyPHbVOnTrVMjEx8ZSjo6OaMVaFwPIZR44cidu0adOM5ORkBwB4b/Pmza63bt3CBWp7YcuYRTmL1UVCx7hHAHBTLpfHLFiwAM9LXBsxYsQTe3v70uoYPyFtFi9eHJWbm+uzcuVKbP3qDQBNdOHQEsGVPMGAT/fs2XPjhg0bLok9oMTERDl6MXoyayhZQEBAu2nTph1h2JmEbD98+PD0Hj16pDMOqMpcuXJFPzMz01ZICIYDBgwwycrKKiu9jQkhZebMmZn9+/f/f+2dXUxbZRjHnxbcIJSJtXMtbiHbIGiLyXESoxIZu4Btst3NC5RhAvtICFtMmDYxmQQJMZubOqLcKDPC3SAzyzRZMC69IRoDaxegyBgxGCjdB7iN8pEZwPyXw8KnUM/px+D/S/4XwHL6lozf0/Oe933eMXWJ7rDBYLibnZ3N+WSygEAgIG1tbQlY4dHf37+xsLAQH0C28DyGNQ8+PN45ceJEz759++5gtmL79u3DmzdvjvS45MqVK5a9e/diFuUdDZd5UFNTsydWUZRb6gPdNzRc7HWv15uam5t7NyYmMn83OAlORP5SI0NDCxcGGAyGRyFkObDRcufOnaPq8sObBQUFv7KHElGZjjaXTE5OChysw3LrDtSEWPU0ok6NhSGlvLx8/9GjR1sTEhKiol2E0Rh13T7IE4z6/4lTjSQqmZiYiIWD4WKNl0ItGDI6HI6RoqKiLlxbw8XwV3PI6XRu0TgoQgghQaK695DG/ncTqAWoCUaz2TyVnp6OM5d9Gsf23NWrVz8aGBhYr/E6hBBCVgicC/fq8NDZh1qAmvCoumRmZrpTUlK6td4qd3V1vVVYWJjT29sbPZNvhBCySoFr4Vy4V+OlplEDUAtk5rYjLy/vnt1u/0WHHZ+bXC7XMbfbvVXjdQghhCwDXAvn6rDbeRI1ALVAZs9H2Wy2C0ajUWufGCxJ2n3kyJGPr1+//sT3JCeEkGgFjoVr4Vyty6jhftSAma8N2C03Q2Ji4veBQKBI43jBtNVqrWhqavosKytLy0NtQggh82hpaYk7cODAB36/v1KPZdQmk6l+ZGTkvZmv5zzBdjqd32Hjl9YXwUD9fv+x4uLid/EGdLgeIYQQtSjArXCsTntrhlX3P2ZOYcjPz0fzsMs6rde23Lhx41NUNU4rEUKIduBSOBVu1emQNLj+sur+x8wpDElJScOKouDcg34dXhCVbCNudXbt2vV5U1PTNq5WIoSQ4IE74VC4VJ0+2qjT3UI/nA/3z/nu/O58brd7g6IotSLyj44dCHGtH3Nycnb39/evj3QHQoZhmCclcCbcCYfq7WW4Hs6f/5oLdskpivIgIyPjC4PBoHXD22zQemOPy+U6n5ub+3VZWdm20dHRWPT3IIQQMhe4EY6EK+FMuBMOVV2qC3A8XA/nL/jZ9KxVSbOx2WzFfr//KxGJ12sgs0BXwrqzZ89ettvtPehOmJaWxipBCFnT9PT0xPT29pq9Xm+a2vuoRJ020ptxq9VaNjg4eH6xHy5ZfQ4fPvxDVVVVttrC9SmdB4U3+mF5eXmBiPyWlZXlycnJaUtOTv69tLSUR2kSQtYUtbW1T/t8vlddLtcrLS0tioi8prZ5D0U3UExHXYDjl/oHS94xjI+PGyorK9NPnTqF5w05IW45jL0Ot00m08COHTtwGptffQDuU4/wfBjC1yaEkHCyTu1rlCwiOMjBeu3aNVsgEHhe/X4ol/hD+C6n01laUVHRHR8fv3gBWO7BR3V1tSMuLs4doWPzphiGYVZpwu5UuBxOX877K3oqnpqamq9+eo9EcWAYhmG0xweXr8T5K5q/On369M8icgbHvul9X0MIISTkwN1nVJcvz0qqx9TUlFy6dMlksVg+UV8g0pWPYRiGWVkewN1wOFy+EucHtdGisbHRbLFYqkTkfhS8WYZhGOa/cx/OhruDcX3Qu/BQdUSkXEQGo+BNMwzDMIsHji6Hs4P1fNCFAbciFy9eXJeamro/Li7OE6mn6wzDMMyimYKb4Wi4eqXTR5oKw+xUV1dnYE2sus8g0r8MhmGYtR642AU3a3G7psKAOJ1Ou4g0iMhYFPxSGIZh1mrg4AY4WavXNReGsbExw8mTJ81Wq/WQwWDo490DwzBMWPMQ7oWD4WI4WavXl2yJ8X84ePBgakdHx/sejwcb4lJC3EaDEELWMpB3n6IoP2VkZHzZ0NBwU78ra6ws8+N2uxPPnTuXm5iY+K3a5yjS1ZRhGGa15TYcC9fCuXp7XPfCMJP29vakqqqqN00m0zdGo3FInWLiCiaGYZjgA3c+hEvhVLgVjg2Vv3WdSlqKkpKS5MHBwbe9Xm9eX1/fC2pXwVB2ECSEkNUAOk/7UlJS/rDb7c02m62xrq5Oz0PUFiUshWGG5ubmpNbWVqW7u/vl+vr6F0XEISIviUhi2AZBCCHRzYiItItIZ1FRUVd6ero7MzPTk5eXdy9cAwhrYZhheHjY2NnZiWLwrMfj2XT8+HH0IU9TC8VWEXlGLRYbRCRBRGLCPkhCCAkNOK1yVO07hyLwt4j8iUKAQ9xqamoGFEW5JSJDDodjxGw2T4V7gP8CcBmG84kj70YAAAAASUVORK5CYII=;" parent="1" vertex="1">
          <mxGeometry x="630" y="254.5" width="51.5" height="51.5" as="geometry" />
        </mxCell>
      </root>
    </mxGraphModel>
  </diagram>
</mxfile>
